<svg width="64" height="87" viewBox="0 0 64 87" fill="none" xmlns="http://www.w3.org/2000/svg">
<g clip-path="url(#clip0_120_445)">
<path d="M53.2138 63.6502L37.3025 82.9205C35.8962 84.622 33.9897 85.5777 32.0019 85.5777C30.0141 85.5777 28.1076 84.622 26.7013 82.9205L10.7863 63.6502C6.59084 58.5688 3.73377 52.0948 2.57634 45.0469C1.41891 37.999 2.0131 30.6937 4.28378 24.0547C6.55445 17.4158 10.3996 11.7414 15.3331 7.74912C20.2665 3.75684 26.0666 1.62598 32 1.62598C37.9334 1.62598 43.7335 3.75684 48.667 7.74912C53.6004 11.7414 57.4456 17.4158 59.7163 24.0547C61.9869 30.6937 62.5811 37.999 61.4237 45.0469C60.2663 52.0948 57.4092 58.5688 53.2138 63.6502Z" fill="black" stroke="black" stroke-width="2.75" stroke-linecap="round" stroke-linejoin="round"/>
<g clip-path="url(#clip1_120_445)">
<path d="M28.7686 35.0867H35.2425L36.4477 38.1335H39.802L33.7174 23.5762H30.2991L24.2305 38.1335H27.5901L28.7686 35.0867ZM32.0002 26.7907L34.2186 32.3592H29.7818L32.0002 26.7907Z" fill="white"/>
<path d="M40.9424 40.8662H36.4469L32.0154 52.209L27.5893 40.8662H23.0885L21.9473 43.5937H25.3762L30.3196 55.4018H33.7379L38.66 43.5937H42.0889L40.9424 40.8662Z" fill="white"/>
<path d="M32.0001 16C23.1798 16 16.002 26.5419 16.002 39.4973C16.002 52.4527 23.1798 63 32.0001 63C40.8204 63 47.9982 52.4581 47.9982 39.4973C47.9982 26.5364 40.8311 16 32.0001 16ZM32.0001 61.2142C24.145 61.2142 17.7564 51.4732 17.7564 39.4973C17.7564 27.5214 24.1503 17.7858 32.0001 17.7858C39.8498 17.7858 46.2491 27.5268 46.2491 39.4973C46.2491 51.4678 39.8605 61.2142 32.0001 61.2142Z" fill="white"/>
</g>
</g>
<defs>
<clipPath id="clip0_120_445">
<rect width="64" height="87" fill="white"/>
</clipPath>
<clipPath id="clip1_120_445">
<rect width="32" height="47" fill="white" transform="translate(16 16)"/>
</clipPath>
</defs>
</svg>
