<svg width="105" height="145" viewBox="0 0 105 145" fill="none" xmlns="http://www.w3.org/2000/svg">
<g clip-path="url(#clip0_120_452)">
<path d="M88.1663 106.009L61.453 138.362C59.0919 141.219 55.8911 142.823 52.5537 142.823C49.2164 142.823 46.0156 141.219 43.6545 138.362L16.9348 106.009C9.89116 97.4782 5.09442 86.6091 3.15121 74.7763C1.208 62.9436 2.20559 50.6786 6.01782 39.5325C9.83006 28.3864 16.2857 18.8597 24.5685 12.1571C32.8512 5.45446 42.5891 1.87695 52.5506 1.87695C62.5121 1.87695 72.25 5.45446 80.5327 12.1571C88.8155 18.8597 95.2711 28.3864 99.0834 39.5325C102.896 50.6786 103.893 62.9436 101.95 74.7763C100.007 86.6091 95.21 97.4782 88.1663 106.009Z" fill="#FF9900" stroke="white" stroke-width="2.75" stroke-linecap="round" stroke-linejoin="round"/>
<g clip-path="url(#clip1_120_452)">
<path d="M47.346 57.8939H58.6754L60.7845 63.1447H66.6545L56.0064 38.0566H50.0244L39.4043 63.1447H45.2836L47.346 57.8939ZM53.0014 43.5965L56.8836 53.1934H49.1192L53.0014 43.5965Z" fill="white"/>
<path d="M68.6497 67.8545H60.7826L53.0275 87.4027L45.2817 67.8545H37.4053L35.4082 72.555H41.4088L50.0598 92.9053H56.0418L64.6555 72.555H70.6561L68.6497 67.8545Z" fill="white"/>
<path d="M53.0006 25C37.5651 25 25.0039 43.1679 25.0039 65.4953C25.0039 87.8228 37.5651 106 53.0006 106C68.4362 106 80.9974 87.8321 80.9974 65.4953C80.9974 43.1585 68.4548 25 53.0006 25ZM53.0006 102.922C39.2542 102.922 28.0742 86.1347 28.0742 65.4953C28.0742 44.856 39.2636 28.0777 53.0006 28.0777C66.7377 28.0777 77.9364 44.8653 77.9364 65.4953C77.9364 86.1254 66.7564 102.922 53.0006 102.922Z" fill="white"/>
</g>
</g>
<defs>
<clipPath id="clip0_120_452">
<rect width="105" height="145" fill="white"/>
</clipPath>
<clipPath id="clip1_120_452">
<rect width="56" height="81" fill="white" transform="translate(25 25)"/>
</clipPath>
</defs>
</svg>
