<svg id="Слой_1" data-name="Слой 1" xmlns="http://www.w3.org/2000/svg" width="21.17mm" height="30.64mm" viewBox="0 0 60 86.85">
  <defs>
    <style>
      .cls-1 {
        fill: #fff;
      }
    </style>
  </defs>
  <g>
    <path class="cls-1" d="M23.94,35.27H36.08l2.26,5.63h6.29L33.22,14H26.81L15.43,40.9h6.3ZM30,19.94l4.16,10.29H25.84Z"/>
    <polygon class="cls-1" points="46.77 45.95 38.34 45.95 30.03 66.91 21.73 45.95 13.29 45.95 11.15 50.99 17.58 50.99 26.85 72.81 33.26 72.81 42.49 50.99 48.92 50.99 46.77 45.95"/>
    <path class="cls-1" d="M30,0C13.46,0,0,19.48,0,43.42S13.46,86.85,30,86.85,60,67.37,60,43.42,46.56,0,30,0m0,83.55c-14.73,0-26.71-18-26.71-40.13S15.28,3.3,30,3.3s26.72,18,26.72,40.12S44.74,83.55,30,83.55"/>
  </g>
</svg>
