<svg width="304" height="216" viewBox="0 0 304 216" fill="none" xmlns="http://www.w3.org/2000/svg">
<path fill-rule="evenodd" clip-rule="evenodd" d="M181.571 166.124C181.53 165.929 181.55 165.703 181.652 165.528C181.806 165.24 181.571 164.407 181.929 164.294C182.205 164.211 182.666 163.964 182.942 164.047C183.219 164.129 183.198 164.499 183.126 164.726C183.045 164.993 182.932 165.25 182.891 165.528C182.85 165.795 182.891 166.032 182.778 166.279C182.656 166.546 182.144 166.598 181.908 166.484L181.581 166.114L181.571 166.124ZM184.14 165.908C184.344 165.703 184.304 165.415 184.293 165.147C184.283 165.055 184.723 164.078 184.815 163.995C185.225 163.615 184.703 163.316 185.348 162.915C185.603 162.761 186.299 162.308 186.381 162.041C186.678 161.074 187.221 161.218 188.142 160.992C189.022 160.776 188.807 160.971 189.391 161.393C189.749 161.66 190.046 161.691 189.851 162.216C189.554 162.987 188.336 161.753 189.125 162.823C189.196 162.915 188.439 163.574 188.643 164.191L189.514 163.872C189.851 163.748 189.626 162.422 190.598 162.504C190.895 162.524 190.578 163.059 190.537 163.162C190.384 163.502 190.445 163.676 190.465 164.036C190.486 164.458 190.158 164.263 189.984 164.376C189.585 164.623 189.606 165.332 189.063 165.672C187.784 166.484 187.61 164.715 186.75 164.931C185.839 165.158 187.907 165.991 187.907 166.392C187.907 167.122 187.108 166.875 186.996 167.39C186.729 168.531 186.146 167.482 185.542 167.42C184.969 167.359 184.406 167.194 184.119 166.618L184.17 165.919L184.14 165.908ZM29.2635 23.441C28.9462 23.1221 30.0414 22.9781 30.2257 22.9061C30.6351 22.7518 31.1776 22.5667 31.6177 22.5975L33.5216 22.7415L34.4632 22.7107C34.8931 22.7004 34.6884 22.8033 34.8113 23.081C34.7601 23.2147 34.842 23.4615 34.6782 23.5541C33.7468 24.089 33.2145 24.7678 31.976 24.377C31.4847 24.2227 31.0548 23.9347 30.6351 23.657C30.3485 23.4718 29.9493 23.585 29.632 23.5233L29.2635 23.441ZM269.28 113.297C269.28 112.947 268.738 113.132 268.902 112.598C268.973 112.34 269.116 111.95 269.352 111.795C269.557 111.662 269.669 111.62 269.577 111.353C269.403 110.859 269.669 110.942 269.72 110.54C269.751 110.335 269.731 110.201 269.905 110.057C270.048 109.944 270.171 109.882 270.294 109.748C270.181 109.388 270.232 108.761 270.549 108.504C270.816 108.288 271.246 108.206 271.399 107.876C271.481 107.691 271.522 107.414 271.716 107.331C272.105 107.167 272.044 107.156 272.31 106.858C272.453 106.694 272.607 106.735 272.781 106.642C273.19 106.416 273.508 105.932 273.907 105.706C274.429 105.017 273.763 104.04 274.777 103.495C275.565 103.073 276.578 102.446 277.469 102.343C277.909 102.291 278.759 102.219 278.851 101.592L278.902 101.54C279.403 101.026 280.652 100.275 281.379 100.255C281.676 100.244 282.003 100.286 282.249 100.09C282.556 99.8535 282.699 99.5244 283.15 99.473C283.16 99.4627 283.16 99.4627 283.17 99.4627C283.18 99.4524 283.18 99.4524 283.18 99.4524V99.4421L283.221 99.401C283.539 99.1953 284.163 98.8044 284.327 98.465C284.705 97.7141 284.839 98.2387 285.361 97.9404C285.647 97.7861 285.852 97.313 285.893 97.0044C285.995 96.2638 286.302 96.7575 286.609 96.3873C286.742 96.233 286.814 96.0375 286.947 95.8935C287.469 95.4307 287.131 95.1838 287.336 94.6284C287.49 94.217 288.38 94.6901 288.308 94.1347C288.257 93.7438 288.247 93.4867 288.431 93.137C288.697 92.6124 288.943 92.7667 289.352 92.4993C289.588 92.3553 289.445 92.1393 289.588 91.9953C289.813 91.769 290.304 91.3061 290.356 90.9975C290.427 90.6273 290.765 90.4935 290.755 90.1335C290.745 89.8455 290.601 89.6913 290.54 89.4341C290.437 88.9918 290.837 89.0741 290.837 88.7861C290.837 88.6215 290.632 88.5084 290.652 88.3541C290.673 88.2101 290.775 88.1895 290.785 88.0044C290.785 87.5621 290.724 87.2021 290.54 86.801C290.376 86.4204 290.54 86.1427 290.601 85.7621C290.755 84.8261 289.834 84.8261 289.557 84.1575C289.342 83.8695 289.045 83.6741 288.851 83.345C288.646 83.0055 288.503 82.7175 288.339 82.3575C288.104 81.8124 288.257 81.1335 287.541 81.041L286.251 80.3313C285.893 80.1358 285.831 79.7244 285.586 79.5701C285.32 79.4158 285.115 79.4775 284.839 79.4055C284.357 79.2821 284.511 78.9015 284.265 78.6444C284.132 78.5004 283.508 78.1301 283.313 78.1095L282.689 78.0581C282.136 77.9553 281.737 77.7598 281.287 77.4204C280.98 77.1941 280.754 76.6078 280.478 76.4638C280.284 76.361 279.987 76.8238 279.741 76.8238C279.362 76.8238 279.137 76.1861 278.871 75.9907C278.595 75.785 277.704 75.8878 277.377 75.9907C276.415 76.1347 275.759 75.8981 275.207 75.137C274.808 74.5815 274.163 74.1084 273.549 73.8513C273.016 73.6353 272.73 73.409 272.638 72.8124C272.597 72.5553 272.423 72.5655 272.33 72.3598C272.136 71.7221 271.573 70.7758 271.194 70.2204C270.764 69.593 270.335 68.8833 269.792 68.3381C269.557 68.1015 268.994 67.5564 268.881 67.2478C268.799 67.0421 268.707 66.8467 268.594 66.6615C268.513 66.5278 268.4 66.4455 268.287 66.3324C268.144 66.1884 267.847 65.9827 267.827 65.7667C267.786 65.273 267.755 64.9233 267.315 64.6147C266.987 64.3884 266.762 63.9564 266.404 63.8021C266.097 63.6684 265.841 63.7404 265.575 63.473C265.288 63.185 265.125 62.8044 264.93 62.4547C264.736 61.3233 263.988 60.449 263.292 59.5747C263.098 59.3278 262.893 58.9061 262.699 58.7107C262.555 58.1141 261.583 57.5278 261.153 57.0753C260.641 56.5404 260.068 55.841 259.454 55.4295C259.045 55.049 258.85 54.5038 258.441 54.1233L257.345 53.0844C256.875 53.0433 256.076 52.6627 255.697 52.385C255.165 51.953 254.694 51.5313 254.039 51.2947C253.313 51.0375 252.985 50.585 252.35 50.2353C251.982 50.0398 251.501 50.0604 251.122 49.8753C250.764 49.7107 250.221 49.1553 249.904 49.0833C249.249 48.8055 248.85 48.1884 248.154 47.9313C247.867 47.8284 246.885 47.6021 246.792 47.2627C246.516 46.985 246.281 46.5015 246.096 46.1518C245.963 45.905 245.523 45.4524 245.472 45.2261L245.431 45.1747C245.124 44.8867 244.909 44.6193 244.52 44.4238C244.193 44.2593 243.763 44.3107 243.404 44.1358C242.616 43.7553 242.197 43.169 241.808 42.4387C241.716 42.2638 240.958 42.1507 240.784 42.1918C240.764 42.1815 240.764 42.1918 240.723 42.1918C240.109 42.0993 239.525 42.0993 238.942 41.8318C238.389 41.5747 238.102 41.1633 237.662 40.7827C237.109 40.2993 235.615 39.4867 235.502 38.7153L235.462 38.6741C235.175 37.9747 233.394 37.4913 232.739 37.2855C231.705 36.9667 230.589 36.1747 229.504 36.0821L228.082 35.8558L226.864 35.7427C226.045 35.6707 225.502 34.5084 224.898 34.0147C224.673 33.8295 223.895 33.4593 223.619 33.4387C222.851 32.9141 221.94 32.3998 221.05 32.1324C220.169 31.865 218.931 32.3278 218.317 31.577C218.04 31.2273 217.692 31.1655 217.242 31.2478C216.853 31.1553 216.607 30.8364 216.177 30.7747C215.717 30.713 215.215 30.7953 214.765 30.7233C213.67 30.5381 213.496 29.921 212.718 29.2524C212.493 29.057 211.725 28.5015 211.49 28.4193C211.203 27.9564 210.66 27.2878 210.159 27.041C209.504 26.7221 208.736 26.9278 208.081 27.113C207.498 27.2261 206.689 27.329 206.208 26.9073C205.665 26.4341 205.287 26.5884 204.673 26.321C204.345 26.177 204.089 25.8581 203.772 25.7347C203.567 25.6524 202.636 25.6113 202.41 25.6627C201.52 25.5084 200.455 25.4467 199.637 25.0455C199.043 24.7575 198.388 23.9141 197.763 23.8935C197.211 23.8833 196.965 23.5953 196.484 23.4513L194.601 21.9907C193.894 21.4353 193.598 21.3015 192.687 21.3015C192.328 21.3015 191.755 21.1061 191.458 21.1473C190.578 21.1061 189.892 20.4993 189.002 20.6638C187.947 20.8593 187.303 20.705 186.453 20.0878C186.095 19.8307 185.542 19.9541 185.143 19.7998L185.092 19.8101L182.666 18.8638C181.939 18.5758 181.171 18.7404 180.527 18.3084L179.411 17.5678L177.261 15.9221C176.965 15.6958 174.999 16.1587 174.518 16.1998C173.965 16.2513 173.208 16.1484 172.686 16.2924C170.874 15.9221 169.339 17.2593 167.855 18.0513C167.497 18.2467 166.954 18.3804 166.657 18.617L166.606 18.6273C165.255 19.5324 163.945 20.4478 162.235 20.1701C161.683 20.0775 161.785 20.5713 161.437 20.7255L158.796 22.9473L156.79 24.6958C155.971 25.0867 155.326 25.1073 154.559 25.6833C154.026 26.0844 153.238 26.4444 152.993 27.0718C152.778 27.617 152.757 27.7507 152.307 28.1518L150.864 29.057C150.434 29.3244 150.393 29.7358 150.147 30.1473C149.717 30.8673 149.205 31.6284 148.499 32.1015C148.172 32.3278 147.68 32.6775 147.65 33.1095C147.619 33.5313 147.496 33.8707 147.148 34.1381C146.575 34.5598 145.695 34.3953 145.203 34.961C144.876 35.3415 144.456 35.609 144.016 35.825C143.555 35.9381 142.849 36.1747 142.634 36.6375C142.378 37.193 142.317 37.6661 141.846 38.0981C141.017 38.8695 139.881 38.4273 138.959 38.7975C138.243 39.0753 138.356 39.7027 138.069 40.2581C137.772 40.8444 136.912 41.1015 136.308 41.1633C135.909 41.2044 135.49 41.0604 135.111 41.2558C134.476 41.5953 134.087 41.9758 133.35 42.1095C133.156 42.1404 132.624 42.0478 132.49 42.1301C131.446 41.9758 130.065 42.4387 128.98 42.4181L126.175 42.3667C126.144 42.3564 126.114 42.3667 126.073 42.3667L123.811 42.5827C123.145 42.6444 122.644 42.7884 121.989 42.5313C121.692 42.4181 121.497 42.161 121.16 42.1507C120.75 42.1404 120.33 42.4181 119.87 42.4181C119.205 42.6958 117.894 43.1587 117.198 42.809C117.024 42.7164 116.963 42.521 116.799 42.4387C116.359 42.5621 116.349 43.385 115.878 43.6524C115.325 43.9713 114.946 43.8787 114.343 43.8478C113.943 43.8273 113.831 43.8581 113.473 43.9404C113.043 44.0741 112.756 44.393 112.255 44.4135C111.784 44.4238 111.477 44.609 111.077 44.8558C110.259 45.3495 109.143 45.4113 108.211 45.5141C107.71 45.5758 107.147 45.4421 106.666 45.5141C105.458 45.4421 104.097 45.1438 103.042 44.5473C102.94 44.4958 102.592 44.1667 102.5 44.2181C102.172 44.3827 102.183 44.8455 101.896 45.0204C101.63 45.1747 100.975 44.8044 100.709 44.6913C100.524 44.4341 100.627 43.8067 100.494 43.6833C100.381 43.5701 99.7977 44.2078 99.6953 44.2901C98.9379 44.9073 98.1804 44.6295 97.6175 43.8684C97.3718 43.529 97.3513 42.6238 96.8088 43.1381C96.2868 43.6318 95.5191 43.313 95.0381 42.8913L94.6901 42.593C94.0247 41.9758 92.3256 41.9553 91.4351 41.6055C90.5958 41.2764 89.6439 40.8444 88.7738 40.7313C88.7534 40.7107 88.7329 40.7107 88.7022 40.7004C88.3644 40.6387 88.0573 40.4741 87.7298 40.4227C87.3715 40.3713 87.0542 40.4741 86.7062 40.4844C86.0307 40.505 85.5905 39.9084 84.9559 39.9084C84.567 39.9084 84.3725 39.5587 84.0245 39.5484L82.6017 39.497C81.7931 39.2913 80.6774 38.6433 80.0223 38.1084C79.2546 37.481 78.4563 37.1518 77.5146 36.9153C77.4532 36.9255 77.3406 36.9255 77.2791 36.9153C76.7469 37.0078 76.2453 36.7301 75.7438 36.7095C75.1706 36.689 75.2934 35.9793 75.3446 35.609C75.406 35.2078 75.0375 35.5781 74.9761 35.7324C74.8226 36.113 74.7509 36.4421 74.2903 36.5141C73.8092 36.5964 73.3998 36.1438 73.0723 35.8661C72.8471 35.681 72.5605 35.5781 72.3148 35.4238C71.8338 34.9404 70.9842 34.0353 70.2677 34.0147C69.4079 33.9941 68.3741 33.9324 67.5859 34.2307C66.6443 35.0638 66.327 34.7655 65.3034 34.4981C65.0066 34.4261 64.7916 34.4878 64.5152 34.2924C64.3515 34.1793 63.9625 33.6238 63.8397 33.6033C63.4814 33.5621 63.3177 34.2924 62.6831 34.0661C62.0177 33.8193 61.9256 33.305 61.5059 32.8215C61.1375 32.5747 60.7894 32.1735 60.4824 31.8444C60.2265 31.5667 60.2162 31.1347 59.8375 31.217C59.6226 31.2581 59.7352 31.649 59.7556 31.8135C59.7761 31.9678 59.6328 32.1427 59.6431 32.2044C59.3155 32.4718 58.988 32.7701 58.5581 32.4924C58.1793 32.2455 57.9132 31.9781 57.862 31.4844C57.7597 31.2067 57.5959 31.0215 57.3195 30.9187C57.0329 30.8055 56.9613 30.497 56.7156 30.4044C56.1527 30.1884 55.3952 30.4867 54.8016 30.2913C54.3819 30.1575 54.4331 29.6844 54.1874 29.489H54.1772C53.8701 29.6741 53.7473 30.1678 53.389 30.281C52.6521 30.569 53.4402 31.5667 52.4474 31.5255C51.9765 31.505 51.4238 31.9987 51.301 32.4307C51.1884 32.8113 50.7687 32.7907 50.4616 32.6261C50.3183 32.5438 50.2979 32.3175 50.1853 32.225C49.5711 32.6878 49.0593 33.4901 48.9058 32.1735C48.9058 31.7724 48.7318 31.2067 48.916 30.8467C49.1412 30.4147 49.0901 30.2295 49.1105 29.7667C49.1208 29.489 49.1003 29.417 48.8853 29.2524C48.609 29.0467 48.5271 28.7895 48.1279 28.9027C47.7696 28.985 47.483 28.7381 47.1555 28.6764C46.7768 28.6044 46.5516 28.9747 46.1934 28.9438C45.9272 28.913 45.7327 28.913 45.4871 29.0467C45.2107 29.201 44.9241 29.3655 44.6785 29.561C44.3816 29.7975 44.4226 30.281 44.0643 30.4147C43.5423 30.6101 43.3888 30.929 42.7849 31.0421C42.5187 31.1758 42.0991 31.3713 41.9762 31.6593C41.8637 31.9164 41.9455 32.1838 42.2117 32.2867C42.6109 32.4513 43.5321 32.1941 43.6549 32.6467C43.7777 33.0787 43.1841 33.1301 42.9998 33.3255C42.8463 33.4901 42.7951 33.7987 42.529 33.809C42.2321 33.8193 42.2219 33.5518 42.0991 33.3461C42.0172 33.2124 41.8841 33.1918 41.7715 33.0993C41.27 32.8215 41.2802 32.3073 41.3109 31.7827C41.3212 31.5255 40.7173 31.1655 40.533 31.217C40.3181 31.2684 39.8472 31.5255 39.6425 31.649C39.1307 31.9473 38.8851 32.3793 38.5166 32.8113C38.2914 33.089 37.9741 33.017 37.667 33.0787C37.2678 33.161 37.2985 33.4695 37.1041 33.737C37.0119 33.8707 36.8482 33.9633 36.7765 34.0867L35.1695 35.5267C34.668 35.9793 34.4018 36.0615 33.8082 36.2878C33.4909 36.4113 33.1633 36.1438 32.9074 35.9895C32.6925 35.6913 32.5185 35.4135 32.6515 35.0433C32.7027 34.8993 33.0303 34.4981 32.8153 34.385C32.6925 34.3233 32.324 34.3335 32.4059 34.1175C32.6822 33.4593 33.7672 33.2124 33.6956 32.4101C33.6546 31.9884 33.6239 31.577 33.3476 31.2375L32.6515 30.4044C32.1807 29.8387 31.587 29.1701 31.454 28.409C31.2288 28.0387 31.0752 27.7301 30.6863 27.5038C30.3383 27.2981 30.0824 27.1644 29.847 26.8044C29.4068 26.1358 29.1714 25.4878 28.6187 24.9221C28.4344 24.7781 28.1785 24.6135 28.0352 24.4284C27.8817 24.233 27.7793 23.945 27.6565 23.7187C27.4006 23.2353 26.7967 22.9781 26.2849 22.937C25.7117 22.793 25.4661 23.2353 24.9952 23.369C24.5346 23.5027 23.8079 23.3895 23.3166 23.3484L20.164 23.081C19.6215 23.0398 19.1097 22.9678 18.6082 22.7518C18.168 22.5667 17.6972 22.9061 17.1956 22.8033C16.8783 22.7415 16.6429 22.8033 16.3563 22.9267L15.1894 23.4307C14.6265 23.6775 14.8414 24.0478 14.5548 24.449C14.3296 24.9941 14.3194 25.1793 14.4115 25.7553C14.4832 26.177 14.1863 26.5575 14.3194 26.9587C14.4013 27.2158 14.4115 27.473 14.2887 27.7198C14.2682 27.833 14.2989 27.9461 14.2682 28.0695C14.1659 28.5735 14.1249 28.9233 14.4832 29.3655C14.8414 29.8181 15.3225 30.0444 15.7217 30.4558C16.1516 31.0215 16.3973 31.5564 16.5303 32.2558C16.6736 32.9758 16.9705 33.5313 16.9705 34.3027C16.8783 34.4673 16.6736 34.7038 16.7043 34.8684C16.8272 35.4547 16.6429 35.9073 16.6634 36.5038C16.6839 37.1415 18.1066 38.057 18.6798 37.8101C19.1199 37.6147 19.5806 37.2341 20.0105 37.6455C20.3482 37.9644 20.8191 38.0981 21.249 38.2421C21.423 38.2113 21.8324 38.3655 21.9962 38.4581C22.2521 38.6021 22.6001 38.9415 22.2725 39.1884C21.8529 39.5175 21.4434 39.8158 20.9214 40.001C20.9112 40.0113 20.8805 40.0215 20.8703 40.0318C20.7065 40.0318 19.6727 40.6798 19.7034 40.0833C19.7136 39.8158 20.1538 39.4044 19.8672 39.0547C19.7136 38.8593 19.3861 39.5587 19.3451 39.641C18.8026 40.7518 18.4751 41.6364 17.1547 41.9141C17.0216 41.9655 16.1311 42.2638 16.0902 42.0787C16.0595 42.0684 16.1311 41.9141 16.1311 41.8833C16.1414 41.7495 16.0697 41.585 16.1107 41.4718C16.1721 41.2867 16.6634 41.2764 16.7657 40.9061C16.8374 40.649 16.9295 39.8981 16.6941 39.7233C16.5098 39.5895 16.3461 39.5484 16.2437 39.3324C16.1311 39.065 16.0492 39.0033 15.8445 38.7975C15.7422 38.6638 15.5477 38.6124 15.4351 38.5198C15.2611 38.3758 15.5784 37.7587 15.302 37.7278C14.9745 37.6867 14.3194 38.8695 14.1659 39.1164C14.043 39.3221 13.9407 39.8055 13.8997 40.0524C13.8281 40.4227 14.0942 40.8341 14.2171 41.1838C14.2478 41.4924 14.2171 41.7701 14.4422 42.017C14.7698 42.3667 15.2509 42.5621 15.4453 43.0455C15.6296 43.4981 15.5784 44.0124 15.7422 44.4855C15.7626 44.6707 16.0083 45.0204 16.0902 45.2055C16.4996 46.1004 16.2335 47.1598 16.7146 48.065C17.124 48.5895 17.1138 49.4227 17.2878 50.0501C17.3901 50.4204 17.5539 50.7701 17.7791 51.0787C17.994 51.377 18.3318 51.665 18.5058 51.9838C18.6491 52.3644 18.6184 52.6318 18.9357 52.9404L20.3278 54.2981C20.8293 54.7815 20.9931 55.3884 21.5253 55.8821C21.6175 56.1187 21.945 56.3758 22.0781 56.6433C22.3237 57.1061 22.3954 57.6615 22.6308 58.1347C22.7434 58.3507 23.3882 59.0707 23.3166 59.2661C23.3166 59.3073 23.3268 59.3175 23.3371 59.3484C23.5213 59.5027 23.552 59.5747 23.7977 59.7084C24.1354 59.8833 24.0536 60.449 24.1661 60.7884C24.289 61.1587 24.5346 62.1358 24.9031 62.2387C25.2716 62.3415 24.985 62.4444 24.9338 62.6707C24.8826 62.8764 25.2511 63.0615 25.3535 63.2261C25.6606 63.5758 25.9472 63.6581 26.203 64.1004C26.4385 64.5324 27.2164 64.6764 27.3187 64.9953C28.0762 65.5713 28.6391 66.425 29.3966 67.0215L30.1745 68.1633C30.5942 68.7804 31.4437 68.7393 31.9964 69.2947C32.5185 69.8193 32.9586 70.241 32.887 71.033C32.8153 71.4753 33.1428 71.4341 32.7232 71.8455C31.8531 72.7301 32.3649 74.5507 33.0405 75.3941C33.4704 75.6513 33.8798 76.0421 34.2483 76.3918C35.4049 77.513 37.9024 77.1735 38.404 79.1175C38.4449 79.4673 38.5166 79.9198 38.6701 80.2387C38.9772 80.8558 39.6527 81.1438 40.1441 81.5964C40.3897 81.8124 40.5944 81.9873 40.7275 82.2958C40.8708 82.625 40.7889 82.8924 41.0755 83.1804C41.3826 83.4581 41.9046 83.5095 42.2219 83.8284L43.8289 85.4535C44.2179 85.8444 44.9037 86.3895 45.1186 86.9038C45.2824 87.305 45.4154 87.6855 45.7737 87.9838C46.3878 88.4981 46.091 89.0433 46.2445 89.7324C46.3264 90.0924 46.6028 90.185 46.9201 90.2878C47.35 90.4318 47.524 90.7095 48.0255 90.7095C48.5169 90.8021 48.9468 91.1724 49.4688 91.1107C50.001 91.0592 50.2876 90.7507 50.7482 90.5141C51.3317 90.2055 52.1198 90.3084 52.7544 89.9793C53.0308 89.8353 54.126 89.5061 54.3614 89.753V89.7735C54.1362 89.9998 53.2457 90.329 52.908 90.4318C52.6316 90.5141 51.3931 90.6787 51.301 90.8227C51.3521 91.2547 52.7749 91.4193 53.1024 91.5015C53.1229 91.5015 53.1434 91.5015 53.1536 91.5118C53.9213 91.5118 54.6071 92.0673 55.4055 92.0364L57.2581 91.9438L59.1517 91.6558L59.2029 91.625L62.161 91.0284L65.6002 90.3598C65.6412 90.3393 65.6309 90.3393 65.6616 90.3393C65.6821 90.329 65.6821 90.3393 65.7026 90.3393C66.0608 90.2158 66.5521 90.257 66.9411 90.2055L72.2739 89.5473L72.3763 89.5267C72.3967 89.5267 72.407 89.5267 72.4274 89.5267L78.8247 89.4341C78.8452 89.4341 78.8657 89.4341 78.8759 89.4444L81.7624 89.9484C82.8269 90.1335 84.1985 90.401 85.1709 90.8433L91.2816 92.4273C91.6193 92.4684 92.0185 92.6741 92.3461 92.777C93.1956 93.0444 94.5877 93.4455 94.5877 94.5461C94.8334 95.4101 96.2049 95.6364 96.9521 95.801C97.4128 95.9038 97.1569 96.5415 97.3104 96.8913C97.4435 97.1998 98.16 97.4158 98.467 97.6524L98.5182 97.6935C98.7843 97.7244 99.1119 98.0638 99.4496 98.1255C100.135 98.2284 100.852 98.1153 101.527 98.2593L103.912 98.7633C103.953 98.7735 103.953 98.7633 103.974 98.7735H103.984C104.23 98.9587 104.946 99.0307 105.253 99.1541L110.289 101.17L110.351 101.18L110.361 101.191C110.566 101.232 110.75 101.345 110.975 101.376C111.497 101.438 111.518 101.17 112.029 101.571C113.524 102.764 115.499 102.816 117.065 103.999C117.536 104.235 118.017 104.626 118.406 104.986C118.959 105.5 119.778 105.562 120.433 105.943L122.777 107.29C124.159 108.031 124.722 109.82 125.786 110.89C126.196 111.25 126.707 111.744 127.219 111.939C127.71 112.124 127.956 112.145 128.304 112.567C128.509 112.814 128.836 112.865 129.133 112.947C129.604 113.081 129.891 113.523 130.351 113.708C130.976 113.966 131.006 114.11 131.313 114.686C131.661 115.087 131.917 115.364 132.439 115.508C132.92 115.642 133.944 116.547 134.22 116.979C134.722 117.73 135.571 117.977 135.93 118.82C136.042 119.036 136.001 119.18 136.063 119.417C136.104 119.571 136.237 119.643 136.339 119.756C136.523 119.962 136.155 120.476 136.656 120.548C137.056 120.61 137.137 120.703 137.414 120.96C137.793 121.31 138.253 121.155 138.632 121.495C139.041 121.875 139.41 122.184 139.727 122.647C140.014 122.976 140.382 123.048 140.72 123.356C141.436 123.984 142.44 124.303 143.064 124.961C143.34 125.249 143.719 125.29 143.995 125.558L144.947 126.483L145.009 126.524C145.306 126.566 146.022 127.296 146.257 127.512L148.038 129.147C148.284 129.374 148.581 129.312 148.837 129.6C149.103 129.898 149.451 130.124 149.697 130.443C150.198 131.019 150.864 131.472 151.406 132.017C151.641 132.254 151.969 132.418 152.153 132.696C152.235 132.819 152.245 132.994 152.297 133.128C152.358 133.292 152.511 133.426 152.614 133.57C153.064 134.27 153.75 135.01 154.333 135.596C154.6 135.864 154.855 135.998 154.845 136.419C154.825 136.862 154.753 137.078 154.886 137.54C155.122 137.839 155.5 138.086 155.531 138.476C155.562 138.908 156.145 139.752 156.483 140.019C156.739 140.225 156.8 140.544 157.036 140.76C157.343 141.038 157.721 141.243 157.885 141.644C157.885 141.655 157.895 141.696 157.906 141.696V141.706C158.121 141.778 158.151 142.663 158.254 142.848C158.377 143.074 158.714 143.126 158.899 143.362C159.308 143.876 159.646 143.876 160.209 144.164C160.454 144.288 160.741 144.339 160.997 144.452C161.335 144.596 161.642 144.843 161.99 144.946C162.716 145.111 163.709 146.273 164.354 146.736C165.132 147.281 166.278 148.196 166.841 148.947C166.913 149.184 167.363 149.554 167.537 149.75C167.937 150.202 168.387 150.655 168.704 151.169L169.943 153.195L171.13 154.913L171.703 155.9C171.898 156.23 172.246 156.672 172.338 157.042C172.584 157.505 172.717 158.122 172.819 158.636C172.932 159.192 173.208 159.819 173.239 160.375C173.372 160.827 173.454 161.959 172.952 162.257C172.706 162.401 172.389 162.391 172.236 162.658C172.021 163.028 172 163.399 171.929 163.81C171.744 164.294 171.509 164.972 171.417 165.487C171.355 165.857 171.222 166.361 170.823 166.474C170.526 166.556 170.168 166.443 169.881 166.556C169.585 166.67 169.533 166.875 169.585 167.174C169.677 167.729 170.383 167.575 170.762 167.513C171.294 167.431 171.499 167.513 171.908 167.811C172.543 168.295 173.126 168.788 173.341 169.601C173.269 169.786 173.372 170.331 173.331 170.588C173.269 170.959 173.269 171.35 173.188 171.72L173.198 171.771C173.024 172.059 172.983 172.8 172.84 173.18C172.471 174.106 171.888 174.826 170.946 174.065C170.342 173.582 168.428 173.756 167.691 173.87C167.292 174.158 167.087 174.374 166.79 174.795C166.534 175.166 166.452 175.217 166.033 175.217C165.49 175.217 165.357 175.906 164.917 176.05C164.671 176.132 164.467 175.927 164.221 175.958C163.924 175.999 163.679 176.215 163.464 176.4C163.484 176.534 163.32 176.924 163.136 176.811C162.635 176.513 162.307 176.883 162.246 177.387C162.215 177.675 162.266 177.963 162.143 178.231C162 178.56 161.805 178.868 161.591 179.156C161.304 179.671 161.038 179.444 160.628 179.732L159.625 180.432C159.267 180.689 159.113 180.648 158.714 180.514C158.254 180.36 158.039 180.884 157.68 181.111C157.353 181.316 156.616 181.224 156.217 181.244C156.207 181.255 156.186 181.275 156.176 181.296C155.91 181.358 155.541 182.324 155.408 182.582C155.183 183.024 155.06 183.754 155.152 184.258C155.193 184.598 155.163 184.958 155.429 185.225C155.644 185.441 155.674 185.667 155.766 185.945C156.002 186.634 157.691 187.313 158.336 187.467C159.175 187.786 160.198 188.198 161.089 188.321C161.58 188.393 162.072 188.3 162.563 188.352C162.972 188.393 163.136 188.815 163.617 188.722C163.658 188.732 163.668 188.753 163.699 188.722L169.728 188.753L172.768 188.979C173.894 189.062 175.112 188.65 176.217 188.434C177.354 188.321 178.234 187.529 179.38 187.406C180.066 187.334 180.271 187.262 180.844 186.86C181.325 186.511 181.919 186.14 182.502 186.017L182.553 185.996C182.563 185.996 182.574 185.996 182.584 185.996C182.717 186.048 183.423 185.719 183.556 185.647C184.242 185.276 184.488 184.906 184.58 184.135C184.662 183.466 185.051 183.065 185.481 182.551C185.593 182.283 185.614 182.036 185.788 181.779C186.125 181.296 186.658 181.316 186.883 180.658C187.088 180.072 187.251 179.28 187.845 178.94C188.101 178.796 188.214 179.187 188.418 179.198C188.807 179.218 188.705 178.858 188.582 178.642C188.572 178.632 188.562 178.611 188.551 178.601C188.275 178.601 187.804 178.488 188.029 178.138C188.203 177.871 188.224 177.562 187.866 177.758C187.251 178.087 187.139 177.377 187.118 176.935C187.098 176.348 186.729 175.947 186.381 175.495C186.34 175.423 186.351 175.443 186.351 175.443C185.951 175.34 185.849 174.332 185.839 174.014C185.818 173.252 185.337 172.707 185.296 171.926C185.327 171.699 185.235 171.37 185.194 171.144C185.133 170.722 185.358 170.342 185.317 169.92C185.307 169.755 185.235 169.58 185.133 169.447C184.989 169.262 184.959 168.974 184.938 168.737C184.989 168.223 184.365 167.616 183.853 167.77C183.638 167.832 183.608 168.418 183.638 168.593C183.669 168.799 183.771 169.004 183.72 169.2C183.567 169.241 183.065 168.788 183.024 169.076C182.993 169.241 183.178 169.292 183.26 169.395C183.352 169.508 183.382 169.704 183.382 169.838C183.126 170.578 183.792 171.257 183.792 171.967C183.792 172.45 183.597 172.46 183.219 172.563C182.84 172.676 183.055 173.139 183.137 173.417C183.331 173.695 183.382 174.147 183.546 174.446C183.638 174.6 184.099 175.063 184.099 175.196L184.089 175.207L182.308 175.083C181.837 175.052 181.693 174.806 181.345 174.538C180.997 174.281 180.537 174.209 180.138 174.065C180.076 174.096 180.086 174.086 180.086 174.096C179.933 174.096 179.81 174.137 179.646 174.096C179.523 174.065 179.483 173.787 179.431 173.664C179.319 173.417 178.96 173.304 178.807 173.006C178.653 172.687 178.766 172.481 178.766 172.162C178.766 171.977 178.602 171.946 178.5 171.812C178.336 171.596 178.326 171.278 178.183 171.041C178.039 170.794 177.702 170.763 177.446 170.681C177.333 170.763 177.241 170.712 177.22 170.578C177.2 170.465 177.19 170.187 177.036 170.146C176.965 170.126 176.944 170.434 176.934 170.486C176.872 171.298 176.207 170.228 176.064 170.023C175.532 169.292 176.371 168.593 176.371 167.863C176.606 167.595 176.729 166.772 176.739 166.412C176.75 165.95 176.883 165.734 177.19 165.425C177.384 165.23 177.466 164.9 177.732 164.798C178.039 164.684 178.244 164.191 178.572 164.242C178.756 164.273 178.797 164.376 178.94 164.479C179.114 164.602 179.216 164.201 179.196 164.098C179.268 163.892 179.268 163.779 179.452 163.656C179.738 163.769 179.964 163.203 180.445 163.358C180.977 163.532 180.956 163.142 181.223 162.833C181.458 162.555 182.021 162.987 182.267 163.1C182.789 163.327 182.963 162.987 182.963 162.442C183.065 162.298 183.004 162.051 183.26 162.062C183.474 162.072 183.567 161.918 183.741 161.907C184.17 161.887 184.16 162.195 184.631 161.928C184.815 161.825 185.153 161.876 185.276 161.732C185.511 161.455 185.296 161.023 185.747 160.755C186.085 160.55 186.699 160.519 187.088 160.447C187.487 160.097 188.081 160.169 188.521 159.85C189.032 159.48 189.79 158.585 190.486 158.688C190.906 158.75 190.742 159.171 191.376 158.996C191.724 158.894 192.482 158.575 192.748 158.348C193.239 158.112 193.853 157.608 194.068 157.094C194.294 156.528 194.539 155.654 194.447 155.036L194.478 154.985C194.478 154.975 194.478 154.975 194.478 154.964C194.478 154.574 194.539 154.234 194.509 153.823C194.314 153.566 193.946 153.123 193.925 152.794C193.894 152.27 194.027 151.694 194.068 151.159C194.048 150.593 193.567 150.068 193.424 149.503C193.198 148.608 193.751 148.063 194.191 147.343C194.457 147.158 194.744 146.746 194.99 146.51C196.095 145.388 197.528 144.072 198.92 143.331L198.971 143.311C199.166 142.961 199.79 142.611 200.087 142.303L201.633 140.719C201.96 140.39 202.062 140.246 202.185 139.803C202.318 139.351 202.738 139.145 203.127 138.919C203.178 138.867 203.158 138.898 203.178 138.867C203.475 138.826 204.11 138.343 204.406 138.178C205.174 137.756 206.024 137.561 206.556 136.831L207.324 135.792C207.62 135.391 208.04 135.164 208.409 134.846C209.35 134.743 210.087 133.498 211.029 133.262C212.288 132.943 212.37 132.233 212.892 131.184C213.066 131.122 213.516 130.546 213.68 130.392C214.704 129.425 216.311 128.53 217.784 128.684C218.255 128.551 218.951 128.612 219.443 128.633L222.401 128.726C222.79 128.736 222.964 128.942 223.291 129.086C223.731 129.281 223.957 129.26 224.438 129.168C224.458 129.168 224.489 129.158 224.52 129.158C224.919 128.839 226.7 129.014 227.263 128.962L230.61 128.654C230.63 128.654 230.651 128.654 230.661 128.643C230.989 128.643 231.582 128.324 231.93 128.232C232.667 128.026 233.158 128.129 233.742 127.563L235.666 125.691C235.697 125.691 235.707 125.702 235.717 125.681C235.891 125.64 236.424 124.961 236.557 124.807C237.744 123.439 239.668 123.665 241.255 123.264L241.296 123.233H241.306L242.964 122.636C243.916 122.297 244.807 121.731 245.8 121.495C246.127 121.423 246.537 121.505 246.833 121.33C247.028 121.217 246.946 120.672 247.028 120.425C247.192 120.209 247.161 120.137 246.946 119.993C246.7 119.828 246.833 119.633 246.987 119.468C247.12 119.314 247.263 118.964 247.437 118.882C247.611 118.8 247.755 119.561 247.877 119.664C248.154 119.89 248.062 119.129 248.041 119.047C247.99 118.841 247.99 118.532 247.908 118.358C247.785 118.08 247.509 118.08 247.468 117.73C247.417 117.298 247.212 117.175 247.048 116.804C246.987 116.527 246.803 116.29 246.762 115.982C246.547 114.408 248.666 113.698 249.71 113.04C250.559 113.04 251.378 112.567 252.176 112.34C252.535 112.238 253.087 112.073 253.405 112.361C253.671 112.608 253.998 113.071 254.357 113.163C254.694 113.462 255.063 113.534 255.503 113.4C256.189 113.184 256.946 113.246 257.622 113.534L259.986 114.542C260.293 114.871 261.276 115.179 261.726 115.282C262.392 115.426 262.259 115.395 262.474 115.982C262.607 116.352 263.855 115.056 264.162 114.902L266.517 113.729C267.08 113.626 267.632 112.886 268.246 113.06C268.594 113.163 268.891 114.14 269.28 113.39L269.209 113.256L269.28 113.297ZM234.766 154.45C235.001 154.255 235.226 153.987 235.472 153.823C235.707 153.658 236.045 153.586 236.219 153.36L236.649 152.835C236.792 152.66 237.222 152.568 237.447 152.403C237.744 152.177 238.123 151.93 238.368 151.652C238.768 151.282 239.208 150.84 239.228 150.264C239.238 149.852 239.044 149.215 238.655 149.009C238.348 148.855 237.939 148.937 237.642 148.783L234.776 148.083C234.1 147.919 233.742 149.276 233.64 149.78C233.558 150.202 233.527 150.799 233.384 151.19C233.384 151.889 232.831 151.714 232.381 151.807C231.777 151.93 231.685 152.29 231.142 151.848C230.927 151.673 230.722 152.259 230.497 152.29C230.149 152.352 229.791 152.228 229.484 152.414C229.115 152.63 229.556 153.113 229.668 153.37C229.648 153.463 229.402 153.699 229.515 153.771C229.709 153.895 229.73 153.771 229.73 154.07C229.73 154.584 230.272 154.286 230.589 154.399C230.907 154.512 231.091 154.882 231.48 154.985C231.951 155.108 232.739 155.036 233.24 155.036C233.814 155.036 234.233 154.738 234.725 154.491L234.755 154.44L234.766 154.45ZM235.881 156.394L236.956 155.304C237.212 155.047 237.181 154.471 237.304 154.121C237.386 153.874 237.683 153.638 237.846 153.432V153.401C237.734 153.288 236.598 153.73 236.383 153.802C235.891 153.956 235.728 154.563 235.124 154.635C234.551 154.707 234.325 155.222 234.029 155.654C233.537 156.353 231.992 156.096 231.992 157.052C231.981 157.063 231.981 157.094 231.981 157.104C232.084 157.454 231.05 157.916 231.551 158.03C231.93 158.112 231.971 158.482 232.278 158.729C232.544 158.945 232.8 159.284 232.974 158.719C233.077 158.41 233.384 158.534 233.609 158.369C233.814 158.215 233.824 157.937 234.018 157.762C234.254 157.556 234.581 157.474 234.837 157.279C235.134 157.052 235.349 156.723 235.666 156.487L235.881 156.394ZM272.494 172.316C272.801 172.018 272.689 171.74 272.75 171.37C272.812 171.01 272.74 170.907 272.607 170.578C272.545 170.414 272.627 170.187 272.515 170.054C272.371 169.879 272.064 169.766 272.023 169.529C271.993 169.385 272.177 169.323 272.156 169.22C272.177 168.953 272.259 168.747 272.105 168.5C271.982 168.305 271.88 168.099 271.737 167.924C271.42 167.523 271.399 167.081 271.01 166.731C270.785 166.526 270.652 166.268 270.529 165.991C270.365 165.651 270.038 165.713 269.833 165.476C269.608 165.209 269.639 164.818 269.444 164.54C269.055 163.995 268.185 163.306 267.632 162.926L266.343 162.01C265.964 161.63 265.81 161.28 265.749 160.755C265.718 160.519 265.821 159.86 265.585 159.768C265.278 159.634 265.043 159.614 264.766 159.387C264.51 159.182 264.193 158.811 264.07 158.503C264.04 158.04 263.466 157.67 263.303 157.196C263.118 156.672 263.2 156.065 263.077 155.51C263.006 155.18 262.801 154.8 262.76 154.491C262.74 154.471 262.74 154.44 262.729 154.419C262.085 153.123 260.907 150.963 259.413 150.531C258.492 149.966 258.072 149.986 256.977 149.986C255.923 149.986 255.257 150.603 254.305 150.891C253.855 151.035 253.354 150.984 252.893 151.025C251.173 151.025 248.707 151.478 247.12 150.675C246.096 150.223 244.807 150.007 243.701 150.151C242.596 150.305 242.371 151.262 242.258 152.228L242.217 152.27C241.879 152.619 241.961 152.794 241.408 152.794C241.071 152.794 240.702 152.979 240.446 153.195C239.914 153.668 239.259 154.347 238.942 154.985C238.696 155.479 238.727 155.612 238.235 155.88C238 156.281 238.502 156.538 237.816 156.641C237.294 156.723 237.468 157.135 237.14 157.433C236.935 157.618 236.823 157.886 236.628 158.06C236.383 158.276 236.239 158.616 235.973 158.77C235.656 158.955 236.137 159.459 236.199 159.686C236.199 159.974 236.024 159.83 235.83 159.871C235.564 159.922 235.646 160.22 235.482 160.272C235.421 160.292 235.185 160.159 235.052 160.179C234.888 160.2 234.796 160.313 234.694 160.436C234.479 160.663 234.284 160.55 234.08 160.879C234.039 160.951 234.029 161.043 233.988 161.115C233.906 161.239 233.588 161.311 233.67 161.527C233.701 161.609 233.783 161.63 233.783 161.732C233.773 161.938 233.67 162.195 233.885 162.35C234.08 162.483 234.346 162.329 234.458 162.668C234.325 163.039 233.783 163.1 233.547 163.44C233.169 163.975 234.346 163.707 234.53 163.728C234.847 163.769 234.571 164.16 234.909 164.222C235.646 164.345 235.114 164.612 235.011 164.993C234.97 165.147 235.165 165.281 235.114 165.435C235.062 165.579 234.735 165.836 234.612 165.96C234.51 166.155 234.469 166.844 234.704 166.855L235.666 166.916C235.943 166.937 236.199 166.721 236.475 166.721C236.68 166.721 236.802 166.752 237.007 166.69C237.283 166.598 237.509 166.433 237.816 166.526C238.02 166.587 237.959 166.988 238.184 167.081C238.399 167.194 238.809 167.184 238.983 167.359C239.187 167.585 239.044 167.626 238.921 167.832C238.85 167.945 239.013 168.264 239.126 168.212C239.29 168.12 239.31 167.842 239.535 167.729C239.638 167.678 239.924 168.202 239.965 168.305C240.068 168.531 240.467 168.356 240.661 168.552C240.774 168.665 240.846 168.809 240.958 168.932C241.132 169.118 241.009 169.694 241.419 169.58C241.726 169.488 242.104 169.56 241.992 169.982C242.043 170.156 242.186 170.527 242.115 170.691C242.033 170.897 241.859 171.092 242.053 171.298C242.135 171.38 242.299 171.771 242.371 171.782C242.483 171.792 242.637 171.566 242.831 171.596C243.189 171.648 243.282 172.018 243.619 172.08C243.896 172.121 244.152 171.802 244.418 171.915C244.571 171.977 244.541 172.224 244.633 172.347C244.807 172.594 245.104 172.563 245.308 172.779C245.595 173.078 245.667 173.088 246.086 173.088C246.403 173.139 247.079 172.964 247.325 173.16C247.437 173.252 247.499 173.407 247.591 173.51C247.744 173.674 248.072 173.602 248.277 173.808C248.85 174.384 250.037 174.898 250.109 175.803C250.17 176.03 250.129 176.318 250.344 176.472C250.559 176.626 250.825 176.616 250.989 176.852C251.102 176.996 251.398 177.768 251.255 177.881C250.979 178.107 250.958 178.508 251.419 178.262C251.972 177.963 252.371 177.768 252.995 177.891C253.087 177.912 253.251 177.871 253.323 177.922C253.446 178.004 253.425 178.303 253.64 178.21C253.845 178.118 253.978 178.159 254.183 178.159C254.428 178.241 254.766 178.19 255.032 178.272C255.288 178.354 255.39 178.56 255.636 178.632C255.933 178.724 255.871 178.858 255.964 179.115C256.015 179.259 256.608 179.002 256.875 179.177C257.304 179.455 257.253 179.187 257.663 179.249C258.082 179.311 258.062 179.969 258.574 179.918C259.086 179.856 259.474 180.216 259.638 180.668C259.761 181.337 260.365 181.296 260.815 181.049C260.938 180.977 261.767 181.028 261.921 181.09C262.085 181.152 262.187 181.584 262.31 181.748C262.596 182.129 262.893 182.222 263.323 182.376C263.794 182.54 263.855 182.828 264.377 182.448C264.551 182.396 265.309 181.79 265.34 181.604C265.411 181.131 265.503 181.265 265.841 180.946C266.261 180.545 266.271 179.969 266.947 180.103C267.192 180.154 267.387 179.938 267.663 180C267.857 180.041 268.287 180.082 268.246 179.763C268.216 179.619 268.042 179.568 268.021 179.403C267.98 179.156 268.431 178.889 268.124 178.58C267.796 178.251 267.714 177.86 268.042 177.5C268.277 177.233 268.267 177.027 268.154 176.708C268.021 176.338 268.349 176.03 268.605 175.824C268.635 175.803 268.646 175.814 268.656 175.783C268.789 175.752 268.861 175.042 269.024 174.908C269.239 174.734 269.557 174.785 269.823 174.559C270.12 174.291 269.976 173.859 270.212 173.633C270.406 173.448 270.631 173.417 270.826 173.17C271.123 172.8 271.389 172.563 271.829 172.831C272.197 173.047 272.023 173.129 272.474 173.129C272.699 173.129 272.812 173.438 273.006 173.51C273.252 173.602 273.241 173.016 272.986 172.903C272.812 172.831 272.33 172.8 272.412 172.481L272.515 172.399L272.494 172.316Z" fill="#5E5E5E" stroke="black" stroke-width="0.377953"/>
<path d="M29.2432 186.418L29.8266 186.13H29.888V188.157C29.888 188.29 29.8982 188.373 29.9085 188.414C29.9187 188.445 29.9392 188.476 29.9801 188.486C30.0108 188.506 30.0927 188.517 30.1951 188.517V188.578H29.2943V188.517C29.4069 188.517 29.4786 188.506 29.5093 188.486C29.54 188.465 29.5605 188.445 29.5809 188.414C29.5912 188.383 29.6014 188.301 29.6014 188.157V186.861C29.6014 186.686 29.5912 186.573 29.5809 186.521C29.5707 186.48 29.5605 186.46 29.54 186.439C29.5195 186.418 29.4888 186.408 29.4581 186.408C29.4172 186.408 29.3558 186.429 29.2739 186.46L29.2432 186.408V186.418Z" fill="black"/>
<path d="M33.9311 187.262C34.0437 187.138 34.1154 187.077 34.1358 187.056C34.187 187.015 34.2484 186.974 34.3098 186.953C34.3713 186.933 34.4327 186.912 34.4941 186.912C34.5964 186.912 34.6783 186.943 34.75 187.005C34.8216 187.066 34.8728 187.149 34.8933 187.262C35.0161 187.118 35.1185 187.025 35.2004 186.984C35.2822 186.943 35.3744 186.922 35.4562 186.922C35.5381 186.922 35.62 186.943 35.6814 186.984C35.7428 187.025 35.8043 187.097 35.835 187.2C35.8657 187.272 35.8759 187.375 35.8759 187.519V188.218C35.8759 188.321 35.8861 188.393 35.8964 188.424C35.9066 188.445 35.9271 188.476 35.9578 188.486C35.9885 188.506 36.0397 188.517 36.1113 188.517V188.578H35.3232V188.517H35.3539C35.4255 188.517 35.4767 188.506 35.5177 188.476C35.5484 188.455 35.5688 188.424 35.5791 188.383C35.5791 188.362 35.5893 188.311 35.5893 188.208V187.509C35.5893 187.375 35.5688 187.282 35.5381 187.231C35.487 187.159 35.4153 187.118 35.3129 187.118C35.2515 187.118 35.1901 187.138 35.1287 187.169C35.0673 187.2 34.9854 187.262 34.9035 187.344V187.365L34.9138 187.437V188.208C34.9138 188.321 34.924 188.383 34.9342 188.414C34.9445 188.445 34.9649 188.465 35.0059 188.486C35.0366 188.506 35.098 188.517 35.1799 188.517V188.578H34.3713V188.517C34.4634 188.517 34.5248 188.506 34.5555 188.486C34.5862 188.465 34.6067 188.434 34.6272 188.393C34.6374 188.373 34.6374 188.311 34.6374 188.218V187.519C34.6374 187.385 34.6169 187.293 34.576 187.231C34.5248 187.159 34.4531 187.118 34.361 187.118C34.2996 187.118 34.2382 187.138 34.1768 187.169C34.0847 187.221 34.0028 187.282 33.9516 187.344V188.218C33.9516 188.321 33.9618 188.393 33.9721 188.424C33.9823 188.455 34.013 188.476 34.0335 188.496C34.0642 188.517 34.1154 188.517 34.2075 188.517V188.578H33.4091V188.517C33.4808 188.517 33.5319 188.506 33.5626 188.496C33.5933 188.476 33.6138 188.455 33.6343 188.424C33.6445 188.393 33.6548 188.321 33.6548 188.218V187.601C33.6548 187.426 33.6445 187.313 33.6343 187.252C33.6241 187.21 33.6138 187.19 33.5933 187.169C33.5729 187.159 33.5524 187.149 33.5217 187.149C33.491 187.149 33.45 187.159 33.3989 187.18L33.3682 187.118L33.8595 186.922H33.9311V187.272V187.262Z" fill="black"/>
<path d="M36.674 186.068C36.7252 186.068 36.7661 186.089 36.7968 186.12C36.8275 186.151 36.848 186.202 36.848 186.243C36.848 186.295 36.8275 186.336 36.7968 186.367C36.7661 186.398 36.7149 186.418 36.674 186.418C36.6228 186.418 36.5819 186.398 36.5512 186.367C36.5205 186.336 36.5 186.284 36.5 186.243C36.5 186.192 36.5205 186.151 36.5512 186.12C36.5819 186.089 36.6331 186.068 36.6842 186.068H36.674ZM36.8173 186.922V188.228C36.8173 188.331 36.8275 188.393 36.8378 188.434C36.848 188.465 36.8787 188.496 36.8992 188.506C36.9299 188.527 36.9811 188.527 37.0527 188.527V188.588H36.2646V188.527C36.3465 188.527 36.3976 188.516 36.4181 188.506C36.4488 188.496 36.4693 188.465 36.4795 188.434C36.5 188.403 36.5 188.331 36.5 188.228V187.601C36.5 187.426 36.4898 187.313 36.4795 187.262C36.4693 187.22 36.4591 187.2 36.4386 187.179C36.4181 187.169 36.3976 187.159 36.3669 187.159C36.3362 187.159 36.2953 187.169 36.2441 187.19L36.2236 187.128L36.7047 186.932H36.7866L36.8173 186.922Z" fill="black"/>
<path d="M30.7583 187.406C30.7583 187.128 30.7992 186.891 30.8811 186.696C30.963 186.501 31.0756 186.346 31.2087 186.254C31.311 186.182 31.4236 186.141 31.5362 186.141C31.7204 186.141 31.8842 186.233 32.0275 186.418C32.2118 186.655 32.3039 186.963 32.3039 187.365C32.3039 187.642 32.2629 187.879 32.181 188.074C32.0992 188.27 31.9968 188.414 31.874 188.496C31.7511 188.589 31.6283 188.63 31.5157 188.63C31.2905 188.63 31.0961 188.496 30.9425 188.229C30.8095 188.002 30.748 187.725 30.748 187.406H30.7583ZM31.1063 187.447C31.1063 187.776 31.1472 188.043 31.2291 188.259C31.3008 188.434 31.3929 188.527 31.526 188.527C31.5874 188.527 31.659 188.496 31.7204 188.445C31.7921 188.383 31.8433 188.29 31.874 188.157C31.9252 187.951 31.9559 187.663 31.9559 187.303C31.9559 187.025 31.9252 186.799 31.874 186.614C31.833 186.48 31.7819 186.377 31.7102 186.326C31.659 186.285 31.6078 186.264 31.5362 186.264C31.4543 186.264 31.3827 186.305 31.3212 186.377C31.2394 186.48 31.1779 186.624 31.1472 186.84C31.1165 187.046 31.1063 187.262 31.1063 187.457V187.447Z" fill="black"/>
<path d="M12.416 189.597C12.416 189.422 12.457 189.247 12.5491 189.072C12.6412 188.897 12.7743 188.763 12.938 188.671C13.112 188.578 13.286 188.527 13.4703 188.527C13.6545 188.527 13.8285 188.578 14.0025 188.671C14.1766 188.763 14.2994 188.897 14.4017 189.062C14.4939 189.237 14.545 189.411 14.545 189.597C14.545 189.782 14.4939 189.957 14.4017 190.131C14.3096 190.306 14.1766 190.43 14.0025 190.533C13.8285 190.625 13.6545 190.677 13.4703 190.677C13.286 190.677 13.112 190.625 12.938 190.533C12.764 190.44 12.631 190.306 12.5491 190.131C12.457 189.957 12.416 189.782 12.416 189.607V189.597ZM12.59 189.597C12.59 189.751 12.631 189.895 12.7026 190.039C12.7743 190.183 12.8869 190.296 13.0302 190.368C13.1735 190.45 13.3168 190.491 13.4703 190.491C13.6238 190.491 13.7671 190.45 13.9104 190.368C14.0537 190.286 14.1561 190.183 14.238 190.039C14.3199 189.895 14.3608 189.751 14.3608 189.597C14.3608 189.442 14.3199 189.298 14.238 189.154C14.1561 189.01 14.0537 188.897 13.9104 188.825C13.7671 188.743 13.6238 188.712 13.4703 188.712C13.3168 188.712 13.1632 188.753 13.0302 188.835C12.8869 188.918 12.7743 189.031 12.7026 189.165C12.631 189.309 12.59 189.453 12.59 189.607V189.597ZM13.6545 189.257L13.7057 189.082C13.8285 189.113 13.9207 189.175 13.9923 189.267C14.064 189.36 14.0947 189.473 14.0947 189.607C14.0947 189.771 14.0435 189.905 13.9309 190.008C13.8285 190.111 13.675 190.162 13.4805 190.162C13.3577 190.162 13.2451 190.142 13.153 190.09C13.0609 190.039 12.9892 189.977 12.9483 189.885C12.8971 189.792 12.8766 189.699 12.8766 189.586C12.8766 189.463 12.9073 189.36 12.9687 189.278C13.0302 189.195 13.112 189.134 13.2144 189.103L13.2553 189.267C13.1837 189.298 13.1325 189.339 13.0916 189.391C13.0506 189.442 13.0302 189.514 13.0302 189.586C13.0302 189.699 13.0711 189.782 13.1427 189.854C13.2246 189.926 13.327 189.957 13.4703 189.957C13.6136 189.957 13.7262 189.926 13.7978 189.854C13.8695 189.792 13.9104 189.699 13.9104 189.597C13.9104 189.514 13.89 189.432 13.8388 189.37C13.7876 189.309 13.7262 189.267 13.6341 189.247L13.6545 189.257Z" fill="black"/>
<path d="M14.5241 186.562H14.3297C14.473 186.655 14.5548 186.799 14.5548 186.984C14.5548 187.107 14.5241 187.21 14.4525 187.313C14.3911 187.416 14.2989 187.488 14.1761 187.55C14.0533 187.601 13.9202 187.632 13.7667 187.632C13.6132 187.632 13.4801 187.611 13.3573 187.56C13.2344 187.509 13.1423 187.437 13.0809 187.334C13.0195 187.231 12.9785 187.118 12.9785 186.994C12.9785 186.902 12.999 186.819 13.04 186.747C13.0809 186.675 13.1321 186.624 13.1935 186.573H12.4463V186.315H14.5139V186.552L14.5241 186.562ZM13.7769 187.365C13.9714 187.365 14.1147 187.323 14.2068 187.241C14.2989 187.159 14.3501 187.066 14.3501 186.953C14.3501 186.84 14.3092 186.747 14.2171 186.665C14.1249 186.583 13.9919 186.552 13.7974 186.552C13.5927 186.552 13.4392 186.593 13.347 186.675C13.2549 186.758 13.2037 186.85 13.2037 186.974C13.2037 187.087 13.2447 187.179 13.3368 187.262C13.4289 187.334 13.5722 187.375 13.7667 187.375L13.7769 187.365Z" fill="black"/>
<path d="M13.8994 186.017H13.6436V185.225H13.8994V186.017Z" fill="black"/>
<path d="M14.5241 184.947H13.0297V184.721H13.2447C13.173 184.67 13.1116 184.608 13.0707 184.536C13.0297 184.454 12.999 184.371 12.999 184.268C12.999 184.155 13.0195 184.063 13.0707 183.991C13.1219 183.919 13.1833 183.867 13.2652 183.836C13.0911 183.713 12.999 183.559 12.999 183.374C12.999 183.219 13.04 183.106 13.1219 183.024C13.2037 182.942 13.3266 182.9 13.5006 182.9H14.5241V183.158H13.5825C13.4801 183.158 13.4085 183.168 13.3675 183.178C13.3266 183.199 13.2856 183.23 13.2549 183.271C13.2242 183.312 13.214 183.363 13.214 183.425C13.214 183.528 13.2447 183.62 13.3163 183.692C13.388 183.764 13.5006 183.795 13.6541 183.795H14.5241V184.052H13.5518C13.4392 184.052 13.3573 184.073 13.2959 184.114C13.2344 184.155 13.214 184.227 13.214 184.32C13.214 184.392 13.2344 184.454 13.2754 184.515C13.3163 184.577 13.3675 184.618 13.4392 184.649C13.5108 184.68 13.6132 184.69 13.7565 184.69H14.5344V184.947H14.5241Z" fill="black"/>
<path d="M14.3297 181.553C14.4115 181.646 14.4627 181.738 14.5037 181.831C14.5344 181.924 14.5548 182.016 14.5548 182.109C14.5548 182.273 14.5139 182.397 14.432 182.489C14.3501 182.582 14.2478 182.623 14.1249 182.623C14.0533 182.623 13.9816 182.602 13.9202 182.572C13.8588 182.541 13.8076 182.489 13.7769 182.438C13.736 182.386 13.7155 182.325 13.6951 182.253C13.6848 182.201 13.6746 182.129 13.6541 182.026C13.6336 181.821 13.6029 181.666 13.562 181.574C13.5313 181.574 13.5006 181.574 13.5006 181.574C13.3982 181.574 13.3266 181.594 13.2856 181.646C13.2242 181.708 13.2037 181.81 13.2037 181.934C13.2037 182.057 13.2242 182.14 13.2652 182.201C13.3061 182.263 13.3777 182.304 13.4903 182.325L13.4596 182.572C13.3573 182.551 13.2652 182.51 13.2037 182.458C13.1423 182.407 13.0911 182.335 13.0502 182.232C13.0195 182.129 12.999 182.016 12.999 181.893C12.999 181.759 13.0093 181.656 13.04 181.574C13.0707 181.492 13.1116 181.43 13.1526 181.399C13.1935 181.358 13.2549 181.337 13.3266 181.317C13.3675 181.306 13.4494 181.306 13.562 181.306H13.8998C14.1352 181.306 14.2887 181.296 14.3501 181.286C14.4115 181.276 14.473 181.255 14.5344 181.224V181.492C14.4832 181.522 14.4218 181.533 14.3501 181.543L14.3297 181.553ZM13.7667 181.574C13.8076 181.666 13.8383 181.81 13.8588 181.996C13.8691 182.098 13.8895 182.17 13.91 182.222C13.9305 182.263 13.9612 182.294 13.9919 182.325C14.0328 182.345 14.0635 182.356 14.1147 182.356C14.1864 182.356 14.2375 182.335 14.2785 182.273C14.3194 182.222 14.3501 182.15 14.3501 182.047C14.3501 181.944 14.3297 181.862 14.2887 181.78C14.2478 181.708 14.1864 181.646 14.1147 181.615C14.0533 181.584 13.9714 181.574 13.8588 181.574H13.7667Z" fill="black"/>
<path d="M15.0973 180.915H13.0195V180.679H13.2139C13.1423 180.627 13.0809 180.565 13.0399 180.493C12.999 180.421 12.9785 180.339 12.9785 180.247C12.9785 180.113 13.0092 180 13.0809 179.907C13.1423 179.804 13.2344 179.732 13.3572 179.681C13.4801 179.629 13.6131 179.609 13.7462 179.609C13.8997 179.609 14.0328 179.64 14.1556 179.691C14.2784 179.743 14.3706 179.825 14.4422 179.928C14.5036 180.031 14.5446 180.144 14.5446 180.257C14.5446 180.339 14.5241 180.421 14.4934 180.483C14.4627 180.555 14.4115 180.607 14.3603 180.648H15.0871V180.905L15.0973 180.915ZM13.7769 180.679C13.9714 180.679 14.1147 180.637 14.2068 180.565C14.2989 180.483 14.3399 180.391 14.3399 180.277C14.3399 180.164 14.2887 180.072 14.1966 179.989C14.1044 179.907 13.9509 179.866 13.7564 179.866C13.5619 179.866 13.4187 179.907 13.3265 179.979C13.2344 180.061 13.1832 180.154 13.1832 180.257C13.1832 180.37 13.2344 180.463 13.3368 180.545C13.4391 180.627 13.5824 180.668 13.7769 180.668V180.679Z" fill="black"/>
<path d="M14.0738 179.403L14.0328 179.146C14.1352 179.136 14.2068 179.095 14.2682 179.023C14.3194 178.961 14.3501 178.868 14.3501 178.755C14.3501 178.642 14.3297 178.55 14.2785 178.498C14.2273 178.436 14.1761 178.416 14.1147 178.416C14.0533 178.416 14.0124 178.447 13.9816 178.488C13.9612 178.519 13.9305 178.611 13.8998 178.745C13.8486 178.93 13.8076 179.064 13.7769 179.136C13.7462 179.208 13.6951 179.259 13.6336 179.3C13.5722 179.342 13.5108 179.352 13.4289 179.352C13.3573 179.352 13.2959 179.331 13.2447 179.311C13.1833 179.28 13.1423 179.239 13.1014 179.187C13.0707 179.146 13.0502 179.095 13.0297 179.023C13.0093 178.951 12.999 178.879 12.999 178.807C12.999 178.694 13.0195 178.58 13.0502 178.498C13.0809 178.406 13.1321 178.344 13.1833 178.303C13.2447 178.262 13.3163 178.231 13.4187 178.21L13.4494 178.457C13.3675 178.467 13.3061 178.498 13.2652 178.56C13.2242 178.611 13.2037 178.694 13.2037 178.786C13.2037 178.899 13.2242 178.982 13.2652 179.033C13.3061 179.084 13.347 179.105 13.3982 179.105C13.4289 179.105 13.4596 179.095 13.4903 179.074C13.521 179.054 13.5415 179.023 13.562 178.971C13.5722 178.94 13.5927 178.868 13.6234 178.745C13.6746 178.56 13.7155 178.436 13.736 178.364C13.7667 178.292 13.8076 178.241 13.8691 178.2C13.9305 178.159 14.0021 178.138 14.084 178.138C14.1659 178.138 14.2478 178.159 14.3194 178.21C14.3911 178.262 14.4525 178.334 14.4934 178.426C14.5344 178.519 14.5548 178.622 14.5548 178.745C14.5548 178.94 14.5139 179.095 14.432 179.198C14.3501 179.3 14.2273 179.362 14.0738 179.393V179.403Z" fill="black"/>
<path d="M14.5239 177.778H14.2373V177.49H14.5239V177.778Z" fill="black"/>
<path d="M13.9714 176.06L14.0021 175.813C14.1761 175.844 14.3092 175.906 14.4013 176.019C14.4934 176.132 14.5446 176.266 14.5446 176.431C14.5446 176.636 14.4729 176.801 14.3399 176.924C14.2068 177.048 14.0123 177.109 13.7667 177.109C13.6029 177.109 13.4596 177.079 13.347 177.027C13.2242 176.976 13.1321 176.893 13.0706 176.78C13.0092 176.667 12.9785 176.554 12.9785 176.42C12.9785 176.256 13.0195 176.122 13.1013 176.019C13.1832 175.916 13.2958 175.844 13.4494 175.824L13.4903 176.071C13.3879 176.091 13.3163 176.132 13.2651 176.194C13.2139 176.256 13.1935 176.328 13.1935 176.41C13.1935 176.544 13.2344 176.647 13.3265 176.729C13.4187 176.811 13.5619 176.852 13.7564 176.852C13.9611 176.852 14.1044 176.811 14.1966 176.739C14.2887 176.657 14.3296 176.564 14.3296 176.441C14.3296 176.338 14.2989 176.256 14.2375 176.194C14.1761 176.122 14.084 176.081 13.9611 176.071L13.9714 176.06Z" fill="black"/>
<path d="M13.7662 175.69C13.4898 175.69 13.2851 175.608 13.1521 175.454C13.0395 175.32 12.9883 175.166 12.9883 174.981C12.9883 174.775 13.0599 174.6 13.193 174.477C13.3261 174.343 13.5103 174.281 13.756 174.281C13.9504 174.281 14.104 174.312 14.2063 174.364C14.3189 174.425 14.4008 174.508 14.4622 174.621C14.5236 174.734 14.5543 174.857 14.5543 174.981C14.5543 175.197 14.4827 175.361 14.3496 175.495C14.2166 175.629 14.0221 175.69 13.7662 175.69ZM13.7662 175.433C13.9607 175.433 14.104 175.392 14.1961 175.31C14.2882 175.228 14.3394 175.114 14.3394 174.991C14.3394 174.868 14.2882 174.754 14.1961 174.672C14.104 174.59 13.9504 174.549 13.756 174.549C13.5717 174.549 13.4284 174.59 13.3363 174.672C13.2442 174.754 13.193 174.857 13.193 174.991C13.193 175.114 13.2442 175.228 13.3363 175.31C13.4284 175.392 13.5717 175.433 13.7662 175.433Z" fill="black"/>
<path d="M14.5241 173.983H13.0297V173.757H13.2447C13.173 173.705 13.1116 173.643 13.0707 173.571C13.0297 173.489 12.999 173.407 12.999 173.304C12.999 173.191 13.0195 173.098 13.0707 173.026C13.1219 172.954 13.1833 172.903 13.2652 172.872C13.0911 172.749 12.999 172.594 12.999 172.409C12.999 172.255 13.04 172.142 13.1219 172.059C13.2037 171.977 13.3266 171.936 13.5006 171.936H14.5241V172.193H13.5825C13.4801 172.193 13.4085 172.203 13.3675 172.214C13.3266 172.234 13.2856 172.265 13.2549 172.306C13.2242 172.347 13.214 172.399 13.214 172.461C13.214 172.563 13.2447 172.656 13.3163 172.728C13.388 172.8 13.5006 172.831 13.6541 172.831H14.5241V173.088H13.5518C13.4392 173.088 13.3573 173.109 13.2959 173.15C13.2344 173.191 13.214 173.263 13.214 173.355C13.214 173.427 13.2344 173.489 13.2754 173.551C13.3163 173.613 13.3675 173.654 13.4392 173.685C13.5108 173.715 13.6132 173.726 13.7565 173.726H14.5344V173.983H14.5241Z" fill="black"/>
<path d="M293.764 10.2856H10.2354V192.991H293.764V10.2856Z" stroke="black" stroke-width="1.88976"/>
</svg>
