<svg width="146" height="68" viewBox="0 0 146 68" fill="none" xmlns="http://www.w3.org/2000/svg">
<g clip-path="url(#clip0_1302_297)">
<path d="M46.2467 0.0345577C46.2467 0.00390625 33.6869 0.0345577 33.6869 0.0345577C15.0957 0.0345577 0.0240479 15.2418 0.0240479 34.0003C0.0240479 52.7588 15.0957 67.9661 33.6869 67.9661L57.3022 67.9461C63.2349 67.9461 68.0444 63.1312 68.0444 57.1448L68.0569 36.4283L84.3794 62.4049C86.5869 65.7759 90.3762 67.9998 94.6804 67.9998C101.494 67.9998 107.018 62.4262 107.018 55.5509L107.015 36.4281L123.337 62.4047C125.545 65.7757 129.334 67.9996 133.638 67.9996C140.452 67.9996 145.976 62.426 145.976 55.5507L145.972 0.00390625H137.574V55.5514C137.574 57.7444 135.812 59.5221 133.638 59.5221C132.28 59.5221 131.082 58.828 130.375 57.7715L101.323 11.5978C101.143 11.3336 100.884 11.1344 100.583 11.0294C100.283 10.9244 99.9574 10.9191 99.6539 11.0142C99.3504 11.1093 99.0851 11.3 98.8967 11.5582C98.7083 11.8164 98.6067 12.1286 98.6067 12.4493L98.616 55.5516C98.616 57.7446 96.8541 59.5224 94.6806 59.5224C93.3222 59.5224 92.1248 58.8282 91.4175 57.7717L62.365 11.5978C62.1849 11.3336 61.9258 11.1345 61.6255 11.0295C61.3253 10.9245 60.9996 10.9192 60.6961 11.0144C60.3927 11.1095 60.1273 11.3001 59.9389 11.5583C59.7505 11.8164 59.6488 12.1287 59.6488 12.4493L59.6423 57.1452C59.6423 58.4493 58.5948 59.5061 57.3024 59.5061L33.6871 59.4882C19.7362 59.488 8.42651 48.0765 8.42651 34.0003C8.42651 19.9241 19.7362 8.51241 33.6869 8.51241L46.2467 8.50306V0.0345577Z" fill="#5E5E5E"/>
<path d="M47.6005 48.6009C47.9178 48.6009 48.2222 48.4737 48.4466 48.2472C48.671 48.0208 48.7971 47.7137 48.7971 47.3935L48.8003 12.4486C48.8001 5.57379 54.3239 0 61.1377 0C65.4572 0 69.2586 2.23995 71.4626 5.6314L87.7285 31.3773L87.7578 12.4489C87.7578 5.57379 93.2814 0 100.095 0C104.415 0 108.216 2.23995 110.42 5.6314L126.686 31.3773V0.00369557H135.142L135.127 55.5511C135.127 55.8665 135.029 56.1737 134.846 56.4295C134.663 56.6853 134.405 56.8765 134.109 56.9762C133.812 57.0759 133.492 57.079 133.194 56.985C132.896 56.8909 132.634 56.7047 132.447 56.4524L103.359 10.2287C102.651 9.17262 101.454 8.47807 100.095 8.47807C97.922 8.47807 96.16 10.2559 96.16 12.4489L96.1695 55.5511C96.1693 55.8664 96.0709 56.1737 95.8881 56.4294C95.7053 56.6852 95.4474 56.8764 95.151 56.9761C94.8545 57.0757 94.5345 57.0788 94.2362 56.9848C93.9379 56.8909 93.6765 56.7046 93.4889 56.4524L64.4011 10.2287C63.6938 9.17262 62.4963 8.47807 61.1377 8.47807C58.9645 8.47807 57.2025 10.2559 57.2025 12.4489L57.2202 55.8927C57.2202 56.2129 57.0941 56.52 56.8697 56.7464C56.6453 56.9728 56.341 57.1 56.0236 57.1L33.6868 57.0955C21.087 57.0955 10.8726 46.7133 10.8726 34.0003C10.8726 21.2871 21.087 10.9048 33.6868 10.9048C33.6868 10.9048 46.2466 10.8554 46.2466 10.9048V19.4683L33.6868 19.4587C25.7275 19.4587 19.2751 25.9692 19.2751 34.0003C19.2751 42.031 25.7275 48.6174 33.6868 48.6174L47.6005 48.6009Z" fill="#5E5E5E"/>
</g>
<defs>
<clipPath id="clip0_1302_297">
<rect width="146" height="68" fill="white"/>
</clipPath>
</defs>
</svg>
