<svg width="210" height="55" viewBox="0 0 210 55" fill="none" xmlns="http://www.w3.org/2000/svg">
<g opacity="0.5" clip-path="url(#clip0_1302_293)">
<path d="M20.2171 5.12472H24.8174C27.619 4.71202 30.4801 5.07487 33.0899 6.17388C36.3641 8.1437 38.739 11.3149 39.7079 15.011C40.3939 16.9479 40.3939 16.9479 42.0484 16.2619H43.3397V0.9281H0.0403275V3.63169H1.81588C2.58747 3.62635 3.35044 3.79393 4.04876 4.12213C4.74707 4.45033 5.36298 4.9308 5.85124 5.52825C7.50574 8.19149 7.78821 11.1776 7.78821 26.7131C7.78821 43.2172 7.42503 47.2524 5.85124 49.3103C5.46272 49.8394 4.9597 50.2739 4.37973 50.5813C3.79977 50.8888 3.15785 51.0612 2.5019 51.0858C0.0403275 51.5297 0.0403275 51.4894 0.0403275 52.5789C-0.0957993 52.9432 -0.0957993 53.3444 0.0403275 53.7087H27.3597C27.5405 53.3523 27.6347 52.9583 27.6347 52.5587C27.6347 52.1591 27.5405 51.7651 27.3597 51.4087C26.698 51.2246 26.0236 51.0897 25.342 51.0051C24.6047 50.9174 23.8758 50.769 23.1629 50.5613C22.142 49.816 21.3333 48.8172 20.8167 47.6637C20.3 46.5101 20.0934 45.2417 20.2171 43.9839C19.8136 41.3206 19.6118 36.438 19.6118 32.4028V29.215H21.226C23.237 29.1534 25.2469 29.3707 27.1983 29.8606C28.1331 30.4383 28.9289 31.2152 29.5288 32.136C30.1287 33.0567 30.518 34.0985 30.6687 35.1871L31.0319 36.438H33.4934V18.562H31.2336L30.8705 20.2971C30.7177 21.4103 30.3058 22.4721 29.668 23.3972C29.0303 24.3223 28.1844 25.0849 27.1983 25.6236C26.2433 25.9078 25.2373 25.9767 24.2525 25.8254H19.6118V21.4674C19.6118 16.9479 19.8539 7.4248 20.0153 5.93177L20.2171 5.12472ZM209.072 37.124C207.164 34.054 204.189 31.7976 200.719 30.7887C198.058 29.957 195.598 28.5831 193.495 26.7535C193.022 26.2958 192.668 25.7292 192.464 25.1032C192.26 24.4772 192.212 23.8108 192.325 23.1621C192.328 21.8898 192.836 20.6707 193.737 19.7726C194.348 19.1328 195.121 18.671 195.974 18.4365C196.827 18.2019 197.728 18.2035 198.58 18.4409C200.344 18.9437 201.939 19.9142 203.197 21.2498C204.454 22.5853 205.327 24.236 205.723 26.0271C206.368 27.843 206.449 27.843 207.619 27.3588L208.345 27.0763V17.0286L207.821 16.7865C203.848 15.3912 199.634 14.8147 195.432 15.0917C191.814 15.1834 188.36 16.6224 185.747 19.1269C184.562 20.2362 183.634 21.591 183.028 23.0966C182.421 24.6022 182.151 26.2221 182.237 27.843C182.259 30.3211 183.243 32.6937 184.981 34.4607C186.901 36.3492 189.257 37.7352 191.841 38.496C198.096 40.9574 199.912 42.5312 199.912 45.3962C199.938 46.6044 199.554 47.7858 198.82 48.7464C198.087 49.707 197.049 50.3896 195.876 50.6823C194.467 50.9919 193.008 50.9919 191.599 50.6823C189.754 49.9663 188.107 48.8202 186.794 47.3393C185.482 45.8583 184.542 44.0854 184.053 42.168L183.528 40.8767H182.802C182.455 40.9025 182.114 40.9843 181.793 41.1189H181.389V52.5789H182.075C184.802 53.4858 187.614 54.1078 190.469 54.4351H194.504C196.254 54.5635 198.013 54.3999 199.71 53.9508C201.863 53.5534 203.875 52.5995 205.546 51.1837C207.217 49.7679 208.488 47.9396 209.233 45.8804C209.715 44.7303 209.962 43.4956 209.96 42.2487C210.119 40.4922 209.812 38.7247 209.072 37.124ZM171.059 16.2619C168.641 15.2467 166.035 14.7542 163.413 14.8168C160.791 14.8794 158.212 15.4956 155.845 16.6251C153.621 17.7133 151.649 19.256 150.057 21.1535C148.465 23.0509 147.289 25.2611 146.605 27.6412C145.732 30.2377 145.362 32.9767 145.515 35.7117C145.486 37.1997 145.608 38.6869 145.878 40.1504C146.53 43.749 148.267 47.062 150.857 49.6444C153.447 52.2268 156.765 53.9549 160.365 54.5965C162.71 54.8919 165.082 54.8919 167.427 54.5965C169.86 54.1677 172.189 53.2774 174.287 51.9736C176.023 51.0005 177.492 49.6145 178.565 47.9384C178.496 47.6754 178.374 47.429 178.208 47.214C178.042 46.9991 177.833 46.82 177.596 46.6875C177.135 46.8542 176.701 47.0852 176.305 47.3734C174.298 48.6962 171.928 49.3592 169.525 49.27C167.931 49.3778 166.333 49.1295 164.846 48.5433C163.359 47.957 162.022 47.0474 160.93 45.8804C160.086 45.0961 159.389 44.1667 158.872 43.1365C157.618 40.6279 156.942 37.8701 156.895 35.066V33.4923H179.251V32.6852C179.3 31.879 179.3 31.0704 179.251 30.2641C179.243 27.4149 178.48 24.6185 177.042 22.1592C175.603 19.6998 173.539 17.6652 171.059 16.2619ZM159.8 30.2238H156.975V27.843C157.904 21.7498 160.204 18.1181 163.028 18.1181C165.853 18.1181 167.064 21.7095 167.588 28.2869V30.1431H165.167L159.8 30.2238ZM101.772 14.9303C100.377 14.8762 98.9912 15.1673 97.7363 15.7777C95.009 17.1022 92.806 19.305 91.4815 22.0323L90.9569 23.0007V14.9303H90.7552C90.2709 14.9303 75.3401 17.9164 74.8559 18.1181C74.3716 18.3199 74.533 18.3602 74.533 19.0866C74.533 19.8129 74.533 19.934 74.8559 19.9743L76.4296 20.2971C76.8704 20.308 77.303 20.4189 77.6945 20.6217C78.086 20.8244 78.4263 21.1136 78.6894 21.4674C79.6983 22.799 79.9001 25.1394 79.9001 35.1064C80.0994 39.5934 79.9104 44.0892 79.3351 48.5437C79.1997 49.2153 78.8591 49.8284 78.3603 50.2982C77.8616 50.768 77.2293 51.0714 76.5507 51.1665L75.1787 51.449H74.6541V52.5789C74.5077 52.9552 74.5077 53.3727 74.6541 53.7491H97.2117V52.5789C97.29 52.1927 97.29 51.7948 97.2117 51.4087C95.8536 51.3557 94.5029 51.1801 93.1764 50.8841C92.454 50.5062 91.863 49.9184 91.4812 49.1981C91.0994 48.4778 90.9448 47.6588 91.0376 46.8489C90.7148 44.5084 90.5534 37.6486 90.6341 32.4028C90.7148 27.157 90.6341 26.8342 91.078 26.471C92.4283 25.4357 94.0993 24.9073 95.7994 24.978C97.4019 25.0129 98.9753 25.4132 100.4 26.1482C100.893 26.4224 101.423 26.6261 101.973 26.7535C101.973 26.7535 106.009 16.9883 106.009 16.5444C105.492 15.9443 104.835 15.4825 104.095 15.2007C103.355 14.9188 102.556 14.8259 101.772 14.9303ZM74.5734 31.8782C74.4325 28.9947 73.6046 26.1865 72.1587 23.6877C70.7127 21.1889 68.6905 19.0718 66.2605 17.5128C63.3728 15.955 60.16 15.0961 56.8802 15.005C53.6003 14.9139 50.3448 15.5932 47.3751 16.9883C43.1762 19.2023 40.006 22.966 38.5376 27.4798C37.021 32.5336 37.021 37.9213 38.5376 42.9751C39.3327 45.737 40.8188 48.2508 42.8555 50.2788C45.3921 52.7538 48.6629 54.3396 52.1771 54.7982C54.433 54.9869 56.7007 54.9869 58.9565 54.7982C59.7867 54.6719 60.6086 54.4968 61.4181 54.2737C64.7028 53.3549 67.6578 51.5197 69.9375 48.9828C72.2172 46.4459 73.7272 43.3123 74.2909 39.9486C74.6938 37.2782 74.7885 34.5703 74.5734 31.8782ZM57.7863 52.0543C53.7509 53.2649 50.7244 49.3507 49.7156 41.1189C49.3451 36.8091 49.3451 32.4755 49.7156 28.1658C50.5227 21.5481 52.5807 18.1988 55.7686 18.1988C56.4118 18.159 57.0552 18.2737 57.6449 18.5335C58.2346 18.7932 58.7536 19.1904 59.1583 19.6919C61.862 22.3955 63.1937 27.7623 63.1937 35.8327C63.5294 40.4001 62.8115 44.9836 61.0953 49.2296C60.3375 50.468 59.165 51.3974 57.7863 51.8525V52.0543ZM130.423 15.7373C129.284 15.5908 128.131 15.5908 126.993 15.7373C124.807 15.7355 122.646 16.2034 120.657 17.1093L119.406 17.6339V8.87748C119.625 5.92236 119.625 2.95512 119.406 0C118.922 0 103.507 2.94571 103.265 3.06676C103.146 3.36469 103.146 3.69694 103.265 3.99486C103.265 4.84226 103.265 4.80191 105.081 5.20543C105.591 5.31977 106.08 5.51021 106.533 5.77036C107.321 6.51106 107.845 7.48871 108.026 8.55466C108.486 11.6255 108.635 14.7349 108.47 17.8357V53.2649L109.56 53.507C111.174 53.8701 115.734 54.6368 117.227 54.7982C120.209 55.0354 123.204 55.0354 126.186 54.7982C129.495 54.4602 132.649 53.2257 135.309 51.2276C137.968 49.2295 140.032 46.5436 141.278 43.4593C142.021 41.4797 142.535 39.4219 142.811 37.3258C143.051 34.4864 142.957 31.6286 142.529 28.8114C142.096 25.6536 140.702 22.7052 138.536 20.3664C136.371 18.0276 133.538 16.4115 130.423 15.7373ZM119.85 51.3683C119.85 50.8437 119.447 33.1695 119.527 26.1079V20.5796L120.698 20.2971C121.487 20.184 122.289 20.184 123.078 20.2971C123.952 20.2084 124.83 20.4067 125.58 20.8621C127.087 21.9021 128.339 23.2704 129.24 24.864C130.142 26.4576 130.671 28.235 130.786 30.0624C131.08 33.0007 131.08 35.9611 130.786 38.8995C130.544 43.1702 128.899 47.2415 126.105 50.4806C125.312 51.2337 124.316 51.7387 123.24 51.9332C122.425 52.0749 121.593 52.0749 120.778 51.9332C120.012 51.9332 120.012 51.6911 120.012 51.3683H119.85Z" fill="#BDBCBC"/>
</g>
<defs>
<clipPath id="clip0_1302_293">
<rect width="210" height="55" fill="white"/>
</clipPath>
</defs>
</svg>
