<svg width="44" height="44" viewBox="0 0 44 44" fill="none" xmlns="http://www.w3.org/2000/svg">
<g clip-path="url(#clip0_333_534)">
<path d="M32.9997 7.3335H10.9997C8.97463 7.3335 7.33301 8.97512 7.33301 11.0002V33.0002C7.33301 35.0252 8.97463 36.6668 10.9997 36.6668H32.9997C35.0247 36.6668 36.6663 35.0252 36.6663 33.0002V11.0002C36.6663 8.97512 35.0247 7.3335 32.9997 7.3335Z" stroke="white" stroke-width="1.5" stroke-linecap="round" stroke-linejoin="round"/>
<path d="M14.667 20.1665V29.3332" stroke="white" stroke-width="1.5" stroke-linecap="round" stroke-linejoin="round"/>
<path d="M14.667 14.6665V14.6848" stroke="white" stroke-width="1.5" stroke-linecap="round" stroke-linejoin="round"/>
<path d="M22 29.3332V20.1665" stroke="white" stroke-width="1.5" stroke-linecap="round" stroke-linejoin="round"/>
<path d="M29.3333 29.3332V23.8332C29.3333 22.8607 28.947 21.9281 28.2594 21.2404C27.5718 20.5528 26.6391 20.1665 25.6667 20.1665C24.6942 20.1665 23.7616 20.5528 23.0739 21.2404C22.3863 21.9281 22 22.8607 22 23.8332" stroke="white" stroke-width="1.5" stroke-linecap="round" stroke-linejoin="round"/>
</g>
<defs>
<clipPath id="clip0_333_534">
<rect width="44" height="44" fill="white"/>
</clipPath>
</defs>
</svg>
