<svg width="36" height="24" viewBox="0 0 36 24" fill="none" xmlns="http://www.w3.org/2000/svg">
<mask id="mask0_1695_6" style="mask-type:luminance" maskUnits="userSpaceOnUse" x="0" y="0" width="36" height="24">
<rect width="36" height="24" fill="white"/>
</mask>
<g mask="url(#mask0_1695_6)">
<path fill-rule="evenodd" clip-rule="evenodd" d="M0 0H36V24H0V0Z" fill="#F7FCFF"/>
<path fill-rule="evenodd" clip-rule="evenodd" d="M0 14.667V16.667H36V14.667H0Z" fill="#E31D1C"/>
<path fill-rule="evenodd" clip-rule="evenodd" d="M0 18.333V20.333H36V18.333H0Z" fill="#E31D1C"/>
<path fill-rule="evenodd" clip-rule="evenodd" d="M0 7.33301V9.33301H36V7.33301H0Z" fill="#E31D1C"/>
<path fill-rule="evenodd" clip-rule="evenodd" d="M0 22V24H36V22H0Z" fill="#E31D1C"/>
<path fill-rule="evenodd" clip-rule="evenodd" d="M0 11V13H36V11H0Z" fill="#E31D1C"/>
<path fill-rule="evenodd" clip-rule="evenodd" d="M0 0V2H36V0H0Z" fill="#E31D1C"/>
<path fill-rule="evenodd" clip-rule="evenodd" d="M0 3.66699V5.66699H36V3.66699H0Z" fill="#E31D1C"/>
<rect width="22.5" height="13" fill="#2E42A5"/>
<path fill-rule="evenodd" clip-rule="evenodd" d="M1.93712 2.93822L1.12051 3.4471L1.3962 2.54149L0.670898 1.96758H1.61825L1.93598 1.22852L2.30855 1.96758H3.11614L2.48159 2.54149L2.72725 3.4471L1.93712 2.93822ZM6.4371 2.93822L5.62048 3.4471L5.89618 2.54149L5.17088 1.96758H6.11822L6.43596 1.22852L6.80852 1.96758H7.61611L6.98157 2.54149L7.22723 3.4471L6.4371 2.93822ZM10.1205 3.4471L10.9371 2.93822L11.7272 3.4471L11.4816 2.54149L12.1161 1.96758H11.3085L10.936 1.22852L10.6182 1.96758H9.67088L10.3962 2.54149L10.1205 3.4471ZM15.4371 2.93822L14.6205 3.4471L14.8962 2.54149L14.1709 1.96758H15.1182L15.436 1.22852L15.8085 1.96758H16.6161L15.9816 2.54149L16.2272 3.4471L15.4371 2.93822ZM1.12051 7.4471L1.93712 6.93822L2.72725 7.4471L2.48159 6.54149L3.11614 5.96758H2.30855L1.93598 5.22852L1.61825 5.96758H0.670898L1.3962 6.54149L1.12051 7.4471ZM6.4371 6.93822L5.62048 7.4471L5.89618 6.54149L5.17088 5.96758H6.11822L6.43596 5.22852L6.80852 5.96758H7.61611L6.98157 6.54149L7.22723 7.4471L6.4371 6.93822ZM10.1205 7.4471L10.9371 6.93822L11.7272 7.4471L11.4816 6.54149L12.1161 5.96758H11.3085L10.936 5.22852L10.6182 5.96758H9.67088L10.3962 6.54149L10.1205 7.4471ZM15.4371 6.93822L14.6205 7.4471L14.8962 6.54149L14.1709 5.96758H15.1182L15.436 5.22852L15.8085 5.96758H16.6161L15.9816 6.54149L16.2272 7.4471L15.4371 6.93822ZM1.12051 11.4471L1.93712 10.9382L2.72725 11.4471L2.48159 10.5415L3.11614 9.96758H2.30855L1.93598 9.22852L1.61825 9.96758H0.670898L1.3962 10.5415L1.12051 11.4471ZM6.4371 10.9382L5.62048 11.4471L5.89618 10.5415L5.17088 9.96758H6.11822L6.43596 9.22852L6.80852 9.96758H7.61611L6.98157 10.5415L7.22723 11.4471L6.4371 10.9382ZM10.1205 11.4471L10.9371 10.9382L11.7272 11.4471L11.4816 10.5415L12.1161 9.96758H11.3085L10.936 9.22852L10.6182 9.96758H9.67088L10.3962 10.5415L10.1205 11.4471ZM15.4371 10.9382L14.6205 11.4471L14.8962 10.5415L14.1709 9.96758H15.1182L15.436 9.22852L15.8085 9.96758H16.6161L15.9816 10.5415L16.2272 11.4471L15.4371 10.9382ZM19.1205 3.4471L19.9371 2.93822L20.7272 3.4471L20.4816 2.54149L21.1161 1.96758H20.3085L19.936 1.22852L19.6182 1.96758H18.6709L19.3962 2.54149L19.1205 3.4471ZM19.9371 6.93822L19.1205 7.4471L19.3962 6.54149L18.6709 5.96758H19.6182L19.936 5.22852L20.3085 5.96758H21.1161L20.4816 6.54149L20.7272 7.4471L19.9371 6.93822ZM19.1205 11.4471L19.9371 10.9382L20.7272 11.4471L20.4816 10.5415L21.1161 9.96758H20.3085L19.936 9.22852L19.6182 9.96758H18.6709L19.3962 10.5415L19.1205 11.4471ZM4.1871 4.93822L3.37048 5.4471L3.64618 4.54149L2.92088 3.96758H3.86822L4.18596 3.22852L4.55852 3.96758H5.36611L4.73157 4.54149L4.97723 5.4471L4.1871 4.93822ZM7.87048 5.4471L8.6871 4.93822L9.47723 5.4471L9.23157 4.54149L9.86611 3.96758H9.05852L8.68596 3.22852L8.36822 3.96758H7.42088L8.14618 4.54149L7.87048 5.4471ZM13.1871 4.93822L12.3705 5.4471L12.6462 4.54149L11.9209 3.96758H12.8682L13.186 3.22852L13.5585 3.96758H14.3661L13.7316 4.54149L13.9772 5.4471L13.1871 4.93822ZM3.37048 9.44711L4.1871 8.93822L4.97723 9.44711L4.73157 8.54149L5.36611 7.96758H4.55852L4.18596 7.22852L3.86822 7.96758H2.92088L3.64618 8.54149L3.37048 9.44711ZM8.6871 8.93822L7.87048 9.44711L8.14618 8.54149L7.42088 7.96758H8.36822L8.68596 7.22852L9.05852 7.96758H9.86611L9.23157 8.54149L9.47723 9.44711L8.6871 8.93822ZM12.3705 9.44711L13.1871 8.93822L13.9772 9.44711L13.7316 8.54149L14.3661 7.96758H13.5585L13.186 7.22852L12.8682 7.96758H11.9209L12.6462 8.54149L12.3705 9.44711ZM17.6871 4.93822L16.8705 5.4471L17.1462 4.54149L16.4209 3.96758H17.3682L17.686 3.22852L18.0585 3.96758H18.8661L18.2316 4.54149L18.4772 5.4471L17.6871 4.93822ZM16.8705 9.44711L17.6871 8.93822L18.4772 9.44711L18.2316 8.54149L18.8661 7.96758H18.0585L17.686 7.22852L17.3682 7.96758H16.4209L17.1462 8.54149L16.8705 9.44711Z" fill="#F7FCFF"/>
</g>
</svg>
