<svg width="244" height="231" viewBox="0 0 244 231" fill="none" xmlns="http://www.w3.org/2000/svg">
<path d="M84.8292 211.907L70.1664 222.934L68.5815 220.151L76.9702 214.055L76.9316 213.987L67.4219 218.114L66.0947 215.783L74.6885 209.418L74.6628 209.373L65.0124 213.883L63.5564 211.326L80.3323 204.01L81.9944 206.929L74.5491 212.478L74.5878 212.546L83.1283 208.921L84.8292 211.907Z" fill="white"/>
<path d="M57.5349 196.209L56.5949 193.361L73.7959 187.583L74.7358 190.43L67.536 192.849L68.149 194.706L75.3489 192.287L76.2888 195.135L59.0879 200.914L58.1479 198.066L65.446 195.614L64.833 193.757L57.5349 196.209Z" fill="white"/>
<path d="M71.042 174.224L68.349 174.964L68.7266 177.573L71.513 177.479L71.9317 180.372L53.5156 180.235L52.9959 176.645L70.6083 171.227L71.042 174.224ZM65.9108 177.644L65.6267 175.681L57.6209 177.863L57.6283 177.915L65.9108 177.644Z" fill="white"/>
<path d="M52.2337 155.806L55.0804 155.879L55.0181 158.333L70.2867 158.727L70.2098 161.755L54.9412 161.361L54.8796 163.789L52.0329 163.715L52.2337 155.806Z" fill="white"/>
<path d="M73.0897 139.206L55.6445 134.285L56.4463 131.392L73.8916 136.313L73.0897 139.206Z" fill="white"/>
<path d="M77.9993 125.883C77.4364 127.156 76.5681 127.881 75.3942 128.058C74.2203 128.235 72.6892 127.832 70.8011 126.848L71.9619 124.224C73.0836 124.805 73.9124 125.131 74.4483 125.2C74.9754 125.247 75.3305 125.063 75.5134 124.65C75.8159 123.966 75.471 123.4 74.4787 122.954L74.3605 122.9C73.8408 122.666 73.2953 122.554 72.7243 122.564C72.1445 122.551 71.6794 122.599 71.3289 122.709C70.9784 122.818 70.4534 123.001 69.7541 123.258C68.6375 123.69 67.5948 123.955 66.626 124.053C65.6485 124.128 64.6242 123.924 63.5531 123.442L63.0333 123.208C61.9307 122.712 61.1885 121.977 60.8067 121.004C60.4319 120.015 60.4908 118.964 60.9832 117.851C61.532 116.61 62.3776 115.894 63.52 115.703C64.6624 115.511 66.0508 115.831 67.6853 116.662L66.5244 119.287C64.8112 118.42 63.7892 118.361 63.4586 119.108C63.1842 119.728 63.4723 120.23 64.3228 120.613L64.4174 120.656C64.7639 120.812 65.1158 120.913 65.473 120.959C65.8215 120.983 66.214 120.949 66.6503 120.86C67.0708 120.763 67.3915 120.678 67.6124 120.606C67.8332 120.534 68.1943 120.401 68.6956 120.207C69.5544 119.888 70.2397 119.662 70.7514 119.53C71.2702 119.382 71.9516 119.336 72.7958 119.392C73.6312 119.425 74.4743 119.633 75.3248 120.016L75.8446 120.25C77.026 120.782 77.8092 121.573 78.1944 122.624C78.5709 123.651 78.5058 124.738 77.9993 125.883Z" fill="white"/>
<path d="M92.2161 102.434L89.8855 100.89L88.1959 102.905L90.1082 104.948L88.2346 107.183L76.1578 93.1804L78.4831 90.4069L94.1566 100.119L92.2161 102.434ZM86.2804 100.826L87.5518 99.3094L80.6359 94.7085L80.6025 94.7484L86.2804 100.826Z" fill="white"/>
<path d="M99.8945 90.6817L103.05 88.0106L104.879 90.2095L99.4412 94.8124L87.8031 80.8197L90.0852 78.8878L99.8945 90.6817Z" fill="white"/>
<path d="M112.315 81.6168L115.861 79.5039L117.308 81.9756L111.196 85.6167L101.989 69.8876L108.056 66.2731L109.503 68.7448L106.001 70.8311L108.461 75.033L111.807 73.0398L113.24 75.489L109.894 77.4823L112.315 81.6168Z" fill="white"/>
<path d="M132.046 75.4941L129.116 76.6163L125.819 71.6819L126.477 77.6272L123.644 78.7123L122.812 69.065L117.241 61.6233L120.171 60.5011L123.526 65.4414L122.738 59.518L125.571 58.4329L126.402 67.8573L132.046 75.4941Z" fill="white"/>
<path d="M150.601 71.4751L146.665 53.4343L149.711 53.1864L152.09 65.7225L152.141 65.7183L152.395 52.968L155.388 52.7244L154.318 71.1727L150.601 71.4751Z" fill="white"/>
<path d="M164.803 71.0271L166.009 52.788L168.979 52.9878L167.773 71.2269L164.803 71.0271Z" fill="white"/>
<path d="M178.784 69.8896L182.81 70.7459L182.223 73.5573L175.284 72.0817L179.022 54.1913L181.935 54.8106L178.784 69.8896Z" fill="white"/>
<path d="M193.512 74.1591L197.344 75.6695L196.308 78.3463L189.704 75.7435L196.301 58.7096L199.072 59.802L193.512 74.1591Z" fill="white"/>
<path d="M208.038 84.5757L209.183 82.0066L206.946 80.6445L205.248 82.8764L202.767 81.3659L214.568 67.0955L217.647 68.9701L210.608 86.1401L208.038 84.5757ZM208.679 78.4037L210.362 79.4287L213.777 71.8022L213.733 71.7752L208.679 78.4037Z" fill="white"/>
<path d="M219.137 93.1948C218.099 92.2776 217.67 91.2269 217.851 90.0426C218.031 88.8584 218.866 87.5006 220.357 85.969L222.497 87.8608C221.614 88.7715 221.061 89.475 220.836 89.9713C220.636 90.4659 220.704 90.8623 221.041 91.1604C221.599 91.6534 222.236 91.4871 222.953 90.6616L223.039 90.5633C223.414 90.1309 223.682 89.6379 223.842 89.0842C224.026 88.529 224.118 88.0662 224.119 87.6961C224.119 87.3259 224.101 86.7657 224.065 86.0156C223.987 84.8117 224.046 83.7282 224.24 82.7651C224.459 81.8004 224.955 80.8725 225.729 79.9814L226.105 79.549C226.901 78.6317 227.817 78.1321 228.851 78.0502C229.898 77.9797 230.875 78.3457 231.783 79.1483C232.795 80.0425 233.222 81.0687 233.065 82.2267C232.907 83.3847 232.193 84.6296 230.922 85.9612L228.782 84.0695C230.11 82.6723 230.469 81.7043 229.859 81.1654C229.354 80.7183 228.793 80.8486 228.179 81.5562L228.111 81.6348C227.86 81.9231 227.66 82.2326 227.51 82.5635C227.385 82.8927 227.3 83.2809 227.255 83.7281C227.222 84.1621 227.207 84.4963 227.21 84.7305C227.213 84.9647 227.232 85.3521 227.267 85.8926C227.314 86.8147 227.325 87.542 227.298 88.0743C227.284 88.6181 227.126 89.2888 226.823 90.0865C226.544 90.8826 226.098 91.6344 225.483 92.342L225.107 92.7744C224.254 93.7572 223.273 94.2797 222.164 94.342C221.08 94.4027 220.071 94.0203 219.137 93.1948Z" fill="white"/>
<path d="M141.917 126.852V198.145L199.334 162.499L141.917 126.852Z" stroke="#FF9900" stroke-width="2.75" stroke-linecap="round" stroke-linejoin="round"/>
</svg>
